solid Bot4
facet normal 0.0 0.0 1.0
  outer loop
    vertex 135.72105336463733 58.27126315731122 37.0
    vertex 65.72105336463734 138.27126315731124 37.0
    vertex 65.72105336463734 58.27126315731122 37.0
  endloop
endfacet
facet normal 0.0 0.0 1.0
  outer loop
    vertex 65.72105336463734 138.27126315731124 37.0
    vertex 135.72105336463733 58.27126315731122 37.0
    vertex 135.72105336463733 138.27126315731124 37.0
  endloop
endfacet
facet normal 0.0 1.0 0.0
  outer loop
    vertex 65.72105336463734 138.27126315731124 37.0
    vertex 135.72105336463733 138.27126315731124 35.0
    vertex 65.72105336463734 138.27126315731124 35.0
  endloop
endfacet
facet normal 0.0 1.0 0.0
  outer loop
    vertex 135.72105336463733 138.27126315731124 35.0
    vertex 65.72105336463734 138.27126315731124 37.0
    vertex 135.72105336463733 138.27126315731124 37.0
  endloop
endfacet
facet normal 1.0 0.0 0.0
  outer loop
    vertex 135.72105336463733 138.27126315731124 35.0
    vertex 135.72105336463733 58.27126315731122 37.0
    vertex 135.72105336463733 58.27126315731122 35.0
  endloop
endfacet
facet normal 1.0 0.0 0.0
  outer loop
    vertex 135.72105336463733 58.27126315731122 37.0
    vertex 135.72105336463733 138.27126315731124 35.0
    vertex 135.72105336463733 138.27126315731124 37.0
  endloop
endfacet
facet normal -1.0 0.0 0.0
  outer loop
    vertex 65.72105336463734 138.27126315731124 37.0
    vertex 65.72105336463734 58.27126315731122 35.0
    vertex 65.72105336463734 58.27126315731122 37.0
  endloop
endfacet
facet normal -1.0 0.0 0.0
  outer loop
    vertex 65.72105336463734 58.27126315731122 35.0
    vertex 65.72105336463734 138.27126315731124 37.0
    vertex 65.72105336463734 138.27126315731124 35.0
  endloop
endfacet
facet normal 0.0 0.0 -1.0
  outer loop
    vertex 132.72105336463733 63.271263157311225 31.999999999999996
    vertex 68.72105336463736 61.27126315731124 31.999999999999996
    vertex 68.72105336463734 63.27126315731123 31.999999999999996
  endloop
endfacet
facet normal 0.0 0.0 -1.0
  outer loop
    vertex 68.72105336463736 61.27126315731124 31.999999999999996
    vertex 132.72105336463733 63.271263157311225 31.999999999999996
    vertex 132.72105336463733 61.27126315731124 31.999999999999996
  endloop
endfacet
facet normal 0.0 1.0 0.0
  outer loop
    vertex 68.72105336463734 63.27126315731123 35.0
    vertex 132.72105336463733 63.271263157311225 31.999999999999996
    vertex 68.72105336463734 63.27126315731123 31.999999999999996
  endloop
endfacet
facet normal 0.0 1.0 0.0
  outer loop
    vertex 132.72105336463733 63.271263157311225 31.999999999999996
    vertex 68.72105336463734 63.27126315731123 35.0
    vertex 132.72105336463733 63.271263157311225 35.0
  endloop
endfacet
facet normal 0.0 -1.0 0.0
  outer loop
    vertex 135.72105336463733 58.27126315731122 37.0
    vertex 65.72105336463734 58.27126315731122 35.0
    vertex 135.72105336463733 58.27126315731122 35.0
  endloop
endfacet
facet normal 0.0 -1.0 0.0
  outer loop
    vertex 65.72105336463734 58.27126315731122 35.0
    vertex 135.72105336463733 58.27126315731122 37.0
    vertex 65.72105336463734 58.27126315731122 37.0
  endloop
endfacet
facet normal -1.0 -2.380851054368283e-15 -1.8563069227734986e-15
  outer loop
    vertex 68.72105336463734 63.27126315731123 35.0
    vertex 68.72105336463734 61.77126315731126 33.300000000000004
    vertex 68.72105336463734 61.771263157311225 35.00000000000001
  endloop
endfacet
facet normal -1.0 -2.380851054368283e-15 -1.8563069227734986e-15
  outer loop
    vertex 68.72105336463734 61.77126315731126 33.300000000000004
    vertex 68.72105336463736 61.27126315731124 31.999999999999996
    vertex 68.72105336463736 61.27126315731124 33.050000000000004
  endloop
endfacet
facet normal -1.0 -2.380851054368283e-15 -1.8563069227734986e-15
  outer loop
    vertex 68.72105336463736 61.27126315731124 31.999999999999996
    vertex 68.72105336463734 61.77126315731126 33.300000000000004
    vertex 68.72105336463734 63.27126315731123 31.999999999999996
  endloop
endfacet
facet normal -1.0 -2.380851054368283e-15 -1.8563069227734986e-15
  outer loop
    vertex 68.72105336463734 63.27126315731123 31.999999999999996
    vertex 68.72105336463734 61.77126315731126 33.300000000000004
    vertex 68.72105336463734 63.27126315731123 35.0
  endloop
endfacet
facet normal 0.0 0.0 -1.0
  outer loop
    vertex 132.72105336463773 133.27126315731124 35.0
    vertex 68.72105336463734 63.27126315731123 35.0
    vertex 68.72105336463734 133.27126315731124 35.0
  endloop
endfacet
facet normal 0.0 0.0 -1.0
  outer loop
    vertex 68.72105336463734 63.27126315731123 35.0
    vertex 132.72105336463773 133.27126315731124 35.0
    vertex 132.72105336463733 63.271263157311225 35.0
  endloop
endfacet
facet normal 0.0 0.0 -1.0
  outer loop
    vertex 132.72105336463733 63.271263157311225 35.0
    vertex 132.72105336463773 133.27126315731124 35.0
    vertex 132.72105336463733 61.77126315731121 35.00000000000001
  endloop
endfacet
facet normal 0.0 0.0 -1.0
  outer loop
    vertex 65.72105336463734 138.27126315731124 35.0
    vertex 68.72105336463734 134.77126315731124 35.0
    vertex 65.72105336463734 58.27126315731122 35.0
  endloop
endfacet
facet normal 0.0 0.0 -1.0
  outer loop
    vertex 68.72105336463734 134.77126315731124 35.0
    vertex 65.72105336463734 138.27126315731124 35.0
    vertex 135.72105336463733 138.27126315731124 35.0
  endloop
endfacet
facet normal 0.0 0.0 -1.0
  outer loop
    vertex 68.72105336463734 134.77126315731124 35.0
    vertex 135.72105336463733 138.27126315731124 35.0
    vertex 132.72105336463773 134.77126315731124 35.0
  endloop
endfacet
facet normal 0.0 0.0 -1.0
  outer loop
    vertex 132.72105336463773 134.77126315731124 35.0
    vertex 135.72105336463733 138.27126315731124 35.0
    vertex 132.72105336463773 133.27126315731124 35.0
  endloop
endfacet
facet normal 0.0 0.0 -1.0
  outer loop
    vertex 65.72105336463734 58.27126315731122 35.0
    vertex 68.72105336463734 61.771263157311225 35.00000000000001
    vertex 135.72105336463733 58.27126315731122 35.0
  endloop
endfacet
facet normal 0.0 0.0 -1.0
  outer loop
    vertex 68.72105336463734 61.771263157311225 35.00000000000001
    vertex 65.72105336463734 58.27126315731122 35.0
    vertex 68.72105336463734 134.77126315731124 35.0
  endloop
endfacet
facet normal 0.0 0.0 -1.0
  outer loop
    vertex 68.72105336463734 61.771263157311225 35.00000000000001
    vertex 68.72105336463734 134.77126315731124 35.0
    vertex 68.72105336463734 133.27126315731124 35.0
  endloop
endfacet
facet normal 0.0 0.0 -1.0
  outer loop
    vertex 68.72105336463734 61.771263157311225 35.00000000000001
    vertex 68.72105336463734 133.27126315731124 35.0
    vertex 68.72105336463734 63.27126315731123 35.0
  endloop
endfacet
facet normal 0.0 0.0 -1.0
  outer loop
    vertex 135.72105336463733 58.27126315731122 35.0
    vertex 68.72105336463734 61.771263157311225 35.00000000000001
    vertex 132.72105336463733 61.77126315731121 35.00000000000001
  endloop
endfacet
facet normal 0.0 0.0 -1.0
  outer loop
    vertex 135.72105336463733 58.27126315731122 35.0
    vertex 132.72105336463733 61.77126315731121 35.00000000000001
    vertex 132.72105336463773 133.27126315731124 35.0
  endloop
endfacet
facet normal 0.0 0.0 -1.0
  outer loop
    vertex 135.72105336463733 58.27126315731122 35.0
    vertex 132.72105336463773 133.27126315731124 35.0
    vertex 135.72105336463733 138.27126315731124 35.0
  endloop
endfacet
facet normal 0.0 0.0 -1.0
  outer loop
    vertex 132.72105336463733 63.271263157311225 35.0
    vertex 68.72105336463734 61.771263157311225 35.00000000000001
    vertex 68.72105336463734 63.27126315731123 35.0
  endloop
endfacet
facet normal 0.0 0.0 -1.0
  outer loop
    vertex 68.72105336463734 61.771263157311225 35.00000000000001
    vertex 132.72105336463733 63.271263157311225 35.0
    vertex 132.72105336463733 61.77126315731121 35.00000000000001
  endloop
endfacet
facet normal 1.0 0.0 0.0
  outer loop
    vertex 132.72105336463733 63.271263157311225 31.999999999999996
    vertex 132.72105336463733 61.27126315731124 33.050000000000004
    vertex 132.72105336463733 61.27126315731124 31.999999999999996
  endloop
endfacet
facet normal 1.0 0.0 0.0
  outer loop
    vertex 132.72105336463733 61.27126315731124 33.050000000000004
    vertex 132.72105336463733 63.271263157311225 31.999999999999996
    vertex 132.72105336463733 61.77126315731124 33.300000000000004
  endloop
endfacet
facet normal 1.0 0.0 0.0
  outer loop
    vertex 132.72105336463733 61.77126315731124 33.300000000000004
    vertex 132.72105336463733 63.271263157311225 35.0
    vertex 132.72105336463733 61.77126315731121 35.00000000000001
  endloop
endfacet
facet normal 1.0 0.0 0.0
  outer loop
    vertex 132.72105336463733 63.271263157311225 35.0
    vertex 132.72105336463733 61.77126315731124 33.300000000000004
    vertex 132.72105336463733 63.271263157311225 31.999999999999996
  endloop
endfacet
facet normal -2.6437185773886546e-16 -1.0 -1.658803813263467e-14
  outer loop
    vertex 132.72105336463733 61.77126315731121 35.00000000000001
    vertex 68.72105336463734 61.77126315731126 33.300000000000004
    vertex 132.72105336463733 61.77126315731124 33.300000000000004
  endloop
endfacet
facet normal -2.6437185773886546e-16 -1.0 -1.658803813263467e-14
  outer loop
    vertex 68.72105336463734 61.77126315731126 33.300000000000004
    vertex 132.72105336463733 61.77126315731121 35.00000000000001
    vertex 68.72105336463734 61.771263157311225 35.00000000000001
  endloop
endfacet
facet normal -7.881564854654789e-17 -0.44721359549995804 0.8944271909999159
  outer loop
    vertex 68.72105336463736 61.27126315731124 33.050000000000004
    vertex 132.72105336463733 61.77126315731124 33.300000000000004
    vertex 68.72105336463734 61.77126315731126 33.300000000000004
  endloop
endfacet
facet normal -7.881564854654789e-17 -0.44721359549995804 0.8944271909999159
  outer loop
    vertex 132.72105336463733 61.77126315731124 33.300000000000004
    vertex 68.72105336463736 61.27126315731124 33.050000000000004
    vertex 132.72105336463733 61.27126315731124 33.050000000000004
  endloop
endfacet
facet normal 0.0 -1.0 0.0
  outer loop
    vertex 132.72105336463733 61.27126315731124 33.050000000000004
    vertex 68.72105336463736 61.27126315731124 31.999999999999996
    vertex 132.72105336463733 61.27126315731124 31.999999999999996
  endloop
endfacet
facet normal 0.0 -1.0 0.0
  outer loop
    vertex 68.72105336463736 61.27126315731124 31.999999999999996
    vertex 132.72105336463733 61.27126315731124 33.050000000000004
    vertex 68.72105336463736 61.27126315731124 33.050000000000004
  endloop
endfacet
facet normal 1.0 0.0 0.0
  outer loop
    vertex 132.22105336463733 107.58926315731127 33.3
    vertex 132.22105336463733 104.58926315731121 35.0
    vertex 132.22105336463733 104.58926315731121 33.3
  endloop
endfacet
facet normal 1.0 0.0 0.0
  outer loop
    vertex 132.22105336463733 104.58926315731121 35.0
    vertex 132.22105336463733 107.58926315731127 33.3
    vertex 132.22105336463733 106.08926315731121 35.0
  endloop
endfacet
facet normal 1.0 0.0 0.0
  outer loop
    vertex 132.22105336463733 106.08926315731121 35.0
    vertex 132.22105336463733 107.58926315731127 33.3
    vertex 132.22105336463733 107.58926315731121 35.0
  endloop
endfacet
facet normal -1.0 -0.0 -0.0
  outer loop
    vertex 130.72105336463733 106.08926315731121 35.0
    vertex 130.72105336463733 104.58926315731121 31.999999999999996
    vertex 130.72105336463733 104.58926315731121 35.0
  endloop
endfacet
facet normal -1.0 -0.0 -0.0
  outer loop
    vertex 130.72105336463733 104.58926315731121 31.999999999999996
    vertex 130.72105336463733 106.08926315731121 35.0
    vertex 130.72105336463733 107.58926315731121 31.999999999999996
  endloop
endfacet
facet normal -1.0 -0.0 -0.0
  outer loop
    vertex 130.72105336463733 107.58926315731121 31.999999999999996
    vertex 130.72105336463733 106.08926315731121 35.0
    vertex 130.72105336463733 107.58926315731121 35.0
  endloop
endfacet
facet normal -2.7051201015804172e-14 1.0 3.707174028316069e-15
  outer loop
    vertex 130.72105336463733 107.58926315731121 35.0
    vertex 132.72105336463733 107.58926315731127 31.999999999999996
    vertex 130.72105336463733 107.58926315731121 31.999999999999996
  endloop
endfacet
facet normal -2.7051201015804172e-14 1.0 3.707174028316069e-15
  outer loop
    vertex 132.72105336463733 107.58926315731127 31.999999999999996
    vertex 130.72105336463733 107.58926315731121 35.0
    vertex 132.22105336463733 107.58926315731127 33.3
  endloop
endfacet
facet normal -2.7051201015804172e-14 1.0 3.707174028316069e-15
  outer loop
    vertex 132.72105336463733 107.58926315731127 31.999999999999996
    vertex 132.22105336463733 107.58926315731127 33.3
    vertex 132.72105336463733 107.58926315731127 33.05
  endloop
endfacet
facet normal -2.7051201015804172e-14 1.0 3.707174028316069e-15
  outer loop
    vertex 132.22105336463733 107.58926315731127 33.3
    vertex 130.72105336463733 107.58926315731121 35.0
    vertex 132.22105336463733 107.58926315731121 35.0
  endloop
endfacet
facet normal 0.0 0.0 1.0
  outer loop
    vertex 132.22105336463733 106.08926315731121 35.0
    vertex 130.72105336463733 107.58926315731121 35.0
    vertex 130.72105336463733 106.08926315731121 35.0
  endloop
endfacet
facet normal 0.0 0.0 1.0
  outer loop
    vertex 130.72105336463733 107.58926315731121 35.0
    vertex 132.22105336463733 106.08926315731121 35.0
    vertex 132.22105336463733 107.58926315731121 35.0
  endloop
endfacet
facet normal 0.0 0.0 1.0
  outer loop
    vertex 132.22105336463733 104.58926315731121 35.0
    vertex 130.72105336463733 106.08926315731121 35.0
    vertex 130.72105336463733 104.58926315731121 35.0
  endloop
endfacet
facet normal 0.0 0.0 1.0
  outer loop
    vertex 130.72105336463733 106.08926315731121 35.0
    vertex 132.22105336463733 104.58926315731121 35.0
    vertex 132.22105336463733 106.08926315731121 35.0
  endloop
endfacet
facet normal 0.0 -1.0 0.0
  outer loop
    vertex 132.72105336463733 104.58926315731121 33.05
    vertex 130.72105336463733 104.58926315731121 31.999999999999996
    vertex 132.72105336463733 104.58926315731121 31.999999999999996
  endloop
endfacet
facet normal 0.0 -1.0 0.0
  outer loop
    vertex 130.72105336463733 104.58926315731121 31.999999999999996
    vertex 132.72105336463733 104.58926315731121 33.05
    vertex 132.22105336463733 104.58926315731121 33.3
  endloop
endfacet
facet normal 0.0 -1.0 0.0
  outer loop
    vertex 130.72105336463733 104.58926315731121 31.999999999999996
    vertex 132.22105336463733 104.58926315731121 33.3
    vertex 130.72105336463733 104.58926315731121 35.0
  endloop
endfacet
facet normal 0.0 -1.0 0.0
  outer loop
    vertex 130.72105336463733 104.58926315731121 35.0
    vertex 132.22105336463733 104.58926315731121 33.3
    vertex 132.22105336463733 104.58926315731121 35.0
  endloop
endfacet
facet normal 0.0 0.0 -1.0
  outer loop
    vertex 132.72105336463733 107.58926315731127 31.999999999999996
    vertex 130.72105336463733 104.58926315731121 31.999999999999996
    vertex 130.72105336463733 107.58926315731121 31.999999999999996
  endloop
endfacet
facet normal 0.0 0.0 -1.0
  outer loop
    vertex 130.72105336463733 104.58926315731121 31.999999999999996
    vertex 132.72105336463733 107.58926315731127 31.999999999999996
    vertex 132.72105336463733 104.58926315731121 31.999999999999996
  endloop
endfacet
facet normal 0.4472135954999579 2.528950653724602e-29 0.8944271909999159
  outer loop
    vertex 132.72105336463733 104.58926315731121 33.05
    vertex 132.22105336463733 107.58926315731127 33.3
    vertex 132.22105336463733 104.58926315731121 33.3
  endloop
endfacet
facet normal 0.4472135954999579 2.528950653724602e-29 0.8944271909999159
  outer loop
    vertex 132.22105336463733 107.58926315731127 33.3
    vertex 132.72105336463733 104.58926315731121 33.05
    vertex 132.72105336463733 107.58926315731127 33.05
  endloop
endfacet
facet normal 1.0 0.0 0.0
  outer loop
    vertex 132.72105336463733 107.58926315731127 31.999999999999996
    vertex 132.72105336463733 104.58926315731121 33.05
    vertex 132.72105336463733 104.58926315731121 31.999999999999996
  endloop
endfacet
facet normal 1.0 0.0 0.0
  outer loop
    vertex 132.72105336463733 104.58926315731121 33.05
    vertex 132.72105336463733 107.58926315731127 31.999999999999996
    vertex 132.72105336463733 107.58926315731127 33.05
  endloop
endfacet
facet normal -2.177206717922834e-14 -1.0 9.756593808603038e-15
  outer loop
    vertex 70.72105336463748 104.58926315731114 34.99999999999986
    vertex 68.72105336463741 104.58926315731117 31.999999999999858
    vertex 70.72105336463748 104.58926315731114 31.999999999999858
  endloop
endfacet
facet normal -2.177206717922834e-14 -1.0 9.756593808603038e-15
  outer loop
    vertex 68.72105336463741 104.58926315731117 31.999999999999858
    vertex 70.72105336463748 104.58926315731114 34.99999999999986
    vertex 69.22105336463734 104.58926315731121 33.299999999999855
  endloop
endfacet
facet normal -2.177206717922834e-14 -1.0 9.756593808603038e-15
  outer loop
    vertex 68.72105336463741 104.58926315731117 31.999999999999858
    vertex 69.22105336463734 104.58926315731121 33.299999999999855
    vertex 68.72105336463741 104.58926315731117 33.049999999999855
  endloop
endfacet
facet normal -2.177206717922834e-14 -1.0 9.756593808603038e-15
  outer loop
    vertex 69.22105336463734 104.58926315731121 33.299999999999855
    vertex 70.72105336463748 104.58926315731114 34.99999999999986
    vertex 69.22105336463734 104.58926315731121 34.99999999999986
  endloop
endfacet
facet normal 2.177206717922834e-14 1.0 -9.756593808603038e-15
  outer loop
    vertex 68.72105336463751 107.58926315731244 33.04999999999981
    vertex 70.72105336463758 107.58926315731242 31.99999999999982
    vertex 68.72105336463751 107.58926315731244 31.99999999999982
  endloop
endfacet
facet normal 2.177206717922834e-14 1.0 -9.756593808603038e-15
  outer loop
    vertex 70.72105336463758 107.58926315731242 31.99999999999982
    vertex 68.72105336463751 107.58926315731244 33.04999999999981
    vertex 69.22105336463744 107.58926315731249 33.29999999999981
  endloop
endfacet
facet normal 2.177206717922834e-14 1.0 -9.756593808603038e-15
  outer loop
    vertex 70.72105336463758 107.58926315731242 31.99999999999982
    vertex 69.22105336463744 107.58926315731249 33.29999999999981
    vertex 70.72105336463758 107.58926315731242 34.999999999999815
  endloop
endfacet
facet normal 2.177206717922834e-14 1.0 -9.756593808603038e-15
  outer loop
    vertex 70.72105336463758 107.58926315731242 34.999999999999815
    vertex 69.22105336463744 107.58926315731249 33.29999999999981
    vertex 69.22105336463744 107.58926315731249 34.999999999999815
  endloop
endfacet
facet normal -1.1005307009637548e-28 -9.756593808603038e-15 -1.0
  outer loop
    vertex 68.72105336463751 107.58926315731244 31.99999999999982
    vertex 70.72105336463748 104.58926315731114 31.999999999999858
    vertex 68.72105336463741 104.58926315731117 31.999999999999858
  endloop
endfacet
facet normal -1.1005307009637548e-28 -9.756593808603038e-15 -1.0
  outer loop
    vertex 70.72105336463748 104.58926315731114 31.999999999999858
    vertex 68.72105336463751 107.58926315731244 31.99999999999982
    vertex 70.72105336463758 107.58926315731242 31.99999999999982
  endloop
endfacet
facet normal -1.0 2.177206717922834e-14 0.0
  outer loop
    vertex 68.72105336463751 107.58926315731244 33.04999999999981
    vertex 68.72105336463741 104.58926315731117 31.999999999999858
    vertex 68.72105336463741 104.58926315731117 33.049999999999855
  endloop
endfacet
facet normal -1.0 2.177206717922834e-14 0.0
  outer loop
    vertex 68.72105336463741 104.58926315731117 31.999999999999858
    vertex 68.72105336463751 107.58926315731244 33.04999999999981
    vertex 68.72105336463751 107.58926315731244 31.99999999999982
  endloop
endfacet
facet normal -0.4472135955000064 1.846332723864614e-14 0.8944271909998917
  outer loop
    vertex 69.22105336463734 104.58926315731121 33.299999999999855
    vertex 68.72105336463751 107.58926315731244 33.04999999999981
    vertex 68.72105336463741 104.58926315731117 33.049999999999855
  endloop
endfacet
facet normal -0.4472135955000064 1.846332723864614e-14 0.8944271909998917
  outer loop
    vertex 68.72105336463751 107.58926315731244 33.04999999999981
    vertex 69.22105336463734 104.58926315731121 33.299999999999855
    vertex 69.22105336463744 107.58926315731249 33.29999999999981
  endloop
endfacet
facet normal -1.0 2.177206717922834e-14 0.0
  outer loop
    vertex 69.22105336463744 107.58926315731249 34.999999999999815
    vertex 69.22105336463734 104.58926315731121 33.299999999999855
    vertex 69.22105336463734 104.58926315731121 34.99999999999986
  endloop
endfacet
facet normal -1.0 2.177206717922834e-14 0.0
  outer loop
    vertex 69.22105336463734 104.58926315731121 33.299999999999855
    vertex 69.22105336463744 107.58926315731249 34.999999999999815
    vertex 69.22105336463744 107.58926315731249 33.29999999999981
  endloop
endfacet
facet normal 4.4021228038547625e-28 9.756593808603038e-15 1.0
  outer loop
    vertex 70.72105336463748 104.58926315731114 34.99999999999986
    vertex 69.22105336463744 107.58926315731249 34.999999999999815
    vertex 69.22105336463734 104.58926315731121 34.99999999999986
  endloop
endfacet
facet normal 4.4021228038547625e-28 9.756593808603038e-15 1.0
  outer loop
    vertex 69.22105336463744 107.58926315731249 34.999999999999815
    vertex 70.72105336463748 104.58926315731114 34.99999999999986
    vertex 70.72105336463758 107.58926315731242 34.999999999999815
  endloop
endfacet
facet normal 1.0 -2.1772067179228344e-14 0.0
  outer loop
    vertex 70.72105336463758 107.58926315731242 31.99999999999982
    vertex 70.72105336463748 104.58926315731114 34.99999999999986
    vertex 70.72105336463748 104.58926315731114 31.999999999999858
  endloop
endfacet
facet normal 1.0 -2.1772067179228344e-14 0.0
  outer loop
    vertex 70.72105336463748 104.58926315731114 34.99999999999986
    vertex 70.72105336463758 107.58926315731242 31.99999999999982
    vertex 70.72105336463758 107.58926315731242 34.999999999999815
  endloop
endfacet
facet normal 0.0 1.0 0.0
  outer loop
    vertex 68.72105336463734 134.77126315731124 35.0
    vertex 132.72105336463773 134.77126315731124 33.3
    vertex 68.72105336463734 134.77126315731124 33.3
  endloop
endfacet
facet normal 0.0 1.0 0.0
  outer loop
    vertex 132.72105336463773 134.77126315731124 33.3
    vertex 68.72105336463734 134.77126315731124 35.0
    vertex 132.72105336463773 134.77126315731124 35.0
  endloop
endfacet
facet normal 0.0 0.0 -1.0
  outer loop
    vertex 132.72105336463773 135.27126315731124 31.999999999999996
    vertex 68.72105336463734 133.27126315731124 31.999999999999996
    vertex 68.72105336463734 135.27126315731124 31.999999999999996
  endloop
endfacet
facet normal 0.0 0.0 -1.0
  outer loop
    vertex 68.72105336463734 133.27126315731124 31.999999999999996
    vertex 132.72105336463773 135.27126315731124 31.999999999999996
    vertex 132.72105336463773 133.27126315731124 31.999999999999996
  endloop
endfacet
facet normal -1.0 0.0 0.0
  outer loop
    vertex 68.72105336463734 134.77126315731124 35.0
    vertex 68.72105336463734 133.27126315731124 31.999999999999996
    vertex 68.72105336463734 133.27126315731124 35.0
  endloop
endfacet
facet normal -1.0 0.0 0.0
  outer loop
    vertex 68.72105336463734 133.27126315731124 31.999999999999996
    vertex 68.72105336463734 134.77126315731124 35.0
    vertex 68.72105336463734 134.77126315731124 33.3
  endloop
endfacet
facet normal -1.0 0.0 0.0
  outer loop
    vertex 68.72105336463734 133.27126315731124 31.999999999999996
    vertex 68.72105336463734 134.77126315731124 33.3
    vertex 68.72105336463734 135.27126315731124 31.999999999999996
  endloop
endfacet
facet normal -1.0 0.0 0.0
  outer loop
    vertex 68.72105336463734 135.27126315731124 31.999999999999996
    vertex 68.72105336463734 134.77126315731124 33.3
    vertex 68.72105336463734 135.27126315731124 33.05
  endloop
endfacet
facet normal 0.0 0.4472135954999579 0.8944271909999159
  outer loop
    vertex 132.72105336463773 134.77126315731124 33.3
    vertex 68.72105336463734 135.27126315731124 33.05
    vertex 68.72105336463734 134.77126315731124 33.3
  endloop
endfacet
facet normal 0.0 0.4472135954999579 0.8944271909999159
  outer loop
    vertex 68.72105336463734 135.27126315731124 33.05
    vertex 132.72105336463773 134.77126315731124 33.3
    vertex 132.72105336463773 135.27126315731124 33.05
  endloop
endfacet
facet normal 1.0 0.0 0.0
  outer loop
    vertex 132.72105336463773 134.77126315731124 35.0
    vertex 132.72105336463773 133.27126315731124 35.0
    vertex 132.72105336463773 134.77126315731124 33.3
  endloop
endfacet
facet normal 1.0 0.0 0.0
  outer loop
    vertex 132.72105336463773 135.27126315731124 31.999999999999996
    vertex 132.72105336463773 133.27126315731124 35.0
    vertex 132.72105336463773 133.27126315731124 31.999999999999996
  endloop
endfacet
facet normal 1.0 0.0 0.0
  outer loop
    vertex 132.72105336463773 133.27126315731124 35.0
    vertex 132.72105336463773 135.27126315731124 31.999999999999996
    vertex 132.72105336463773 134.77126315731124 33.3
  endloop
endfacet
facet normal 1.0 0.0 0.0
  outer loop
    vertex 132.72105336463773 134.77126315731124 33.3
    vertex 132.72105336463773 135.27126315731124 31.999999999999996
    vertex 132.72105336463773 135.27126315731124 33.05
  endloop
endfacet
facet normal 0.0 1.0 0.0
  outer loop
    vertex 68.72105336463734 135.27126315731124 33.05
    vertex 132.72105336463773 135.27126315731124 31.999999999999996
    vertex 68.72105336463734 135.27126315731124 31.999999999999996
  endloop
endfacet
facet normal 0.0 1.0 0.0
  outer loop
    vertex 132.72105336463773 135.27126315731124 31.999999999999996
    vertex 68.72105336463734 135.27126315731124 33.05
    vertex 132.72105336463773 135.27126315731124 33.05
  endloop
endfacet
facet normal 0.0 -1.0 0.0
  outer loop
    vertex 132.72105336463773 133.27126315731124 35.0
    vertex 68.72105336463734 133.27126315731124 31.999999999999996
    vertex 132.72105336463773 133.27126315731124 31.999999999999996
  endloop
endfacet
facet normal 0.0 -1.0 0.0
  outer loop
    vertex 68.72105336463734 133.27126315731124 31.999999999999996
    vertex 132.72105336463773 133.27126315731124 35.0
    vertex 68.72105336463734 133.27126315731124 35.0
  endloop
endfacet
endsolid Bot4
