solid MatchBot RearSupport
facet normal 0.9028605188239301 -1.0642318793043798e-16 0.4299335803923479
  outer loop
    vertex 196.52530435517588 96.35329969528985 4.1999999999999895
    vertex 191.02530435517588 88.35329969528988 15.75000000000001
    vertex 196.52530435517588 88.35329969528986 4.1999999999999895
  endloop
endfacet
facet normal 0.9028605188239301 -1.0642318793043798e-16 0.4299335803923479
  outer loop
    vertex 191.02530435517588 88.35329969528988 15.75000000000001
    vertex 196.52530435517588 96.35329969528985 4.1999999999999895
    vertex 191.02530435517588 93.35329969528988 15.75000000000001
  endloop
endfacet
facet normal 0.9028605188239301 -1.0642318793043798e-16 0.4299335803923479
  outer loop
    vertex 191.02530435517588 93.35329969528988 15.75000000000001
    vertex 196.52530435517588 96.35329969528985 4.1999999999999895
    vertex 188.52530435517588 93.35329969528988 21.0
  endloop
endfacet
facet normal 0.9028605188239301 -1.0642318793043798e-16 0.4299335803923479
  outer loop
    vertex 188.52530435517588 93.35329969528988 21.0
    vertex 196.52530435517588 96.35329969528985 4.1999999999999895
    vertex 188.52530435517588 96.35329969528988 21.0
  endloop
endfacet
facet normal 6.419735510452739e-16 1.0 -2.0181225293916844e-16
  outer loop
    vertex 183.9782376841053 96.35329969528992 1.3096298039941234
    vertex 193.5253043551759 96.35329969528986 1.2499999999999984
    vertex 183.52530435517588 96.35329969528992 1.249999999999992
  endloop
endfacet
facet normal 6.419735510452739e-16 1.0 -2.0181225293916844e-16
  outer loop
    vertex 193.5253043551759 96.35329969528986 1.2499999999999984
    vertex 183.9782376841053 96.35329969528992 1.3096298039941234
    vertex 193.0723710262465 96.35329969528986 1.3096298039941277
  endloop
endfacet
facet normal 6.419735510452739e-16 1.0 -2.0181225293916844e-16
  outer loop
    vertex 193.0723710262465 96.35329969528986 1.3096298039941277
    vertex 183.9782376841053 96.35329969528992 1.3096298039941234
    vertex 184.40030435517588 96.35329969528992 1.4844555433772257
  endloop
endfacet
facet normal 6.419735510452739e-16 1.0 -2.0181225293916844e-16
  outer loop
    vertex 193.0723710262465 96.35329969528986 1.3096298039941277
    vertex 184.40030435517588 96.35329969528992 1.4844555433772257
    vertex 192.65030435517588 96.35329969528986 1.4844555433772286
  endloop
endfacet
facet normal 6.419735510452739e-16 1.0 -2.0181225293916844e-16
  outer loop
    vertex 192.65030435517588 96.35329969528986 1.4844555433772286
    vertex 184.40030435517588 96.35329969528992 1.4844555433772257
    vertex 184.76274122225237 96.35329969528992 1.7625631329235367
  endloop
endfacet
facet normal 6.419735510452739e-16 1.0 -2.0181225293916844e-16
  outer loop
    vertex 192.65030435517588 96.35329969528986 1.4844555433772286
    vertex 184.76274122225237 96.35329969528992 1.7625631329235367
    vertex 192.28786748809944 96.35329969528986 1.7625631329235372
  endloop
endfacet
facet normal 6.419735510452739e-16 1.0 -2.0181225293916844e-16
  outer loop
    vertex 192.28786748809944 96.35329969528986 1.7625631329235372
    vertex 184.76274122225237 96.35329969528992 1.7625631329235367
    vertex 185.04084881179867 96.35329969528992 2.124999999999997
  endloop
endfacet
facet normal 6.419735510452739e-16 1.0 -2.0181225293916844e-16
  outer loop
    vertex 192.28786748809944 96.35329969528986 1.7625631329235372
    vertex 185.04084881179867 96.35329969528992 2.124999999999997
    vertex 192.0097598985531 96.35329969528986 2.1249999999999956
  endloop
endfacet
facet normal 6.419735510452739e-16 1.0 -2.0181225293916844e-16
  outer loop
    vertex 192.0097598985531 96.35329969528986 2.1249999999999956
    vertex 185.04084881179867 96.35329969528992 2.124999999999997
    vertex 191.83493415917002 96.35329969528986 2.547066671070584
  endloop
endfacet
facet normal 6.419735510452739e-16 1.0 -2.0181225293916844e-16
  outer loop
    vertex 191.83493415917002 96.35329969528986 2.547066671070584
    vertex 185.04084881179867 96.35329969528992 2.124999999999997
    vertex 185.21567455118176 96.35329969528992 2.5470666710705876
  endloop
endfacet
facet normal 6.419735510452739e-16 1.0 -2.0181225293916844e-16
  outer loop
    vertex 191.83493415917002 96.35329969528986 2.547066671070584
    vertex 185.21567455118176 96.35329969528992 2.5470666710705876
    vertex 191.77530435517588 96.35329969528986 2.999999999999995
  endloop
endfacet
facet normal 6.419735510452739e-16 1.0 -2.0181225293916844e-16
  outer loop
    vertex 191.77530435517588 96.35329969528986 2.999999999999995
    vertex 185.21567455118176 96.35329969528992 2.5470666710705876
    vertex 185.2753043551759 96.35329969528992 3.0000000000000004
  endloop
endfacet
facet normal 6.419735510452739e-16 1.0 -2.0181225293916844e-16
  outer loop
    vertex 191.77530435517588 96.35329969528986 2.999999999999995
    vertex 185.2753043551759 96.35329969528992 3.0000000000000004
    vertex 191.83493415917002 96.35329969528986 3.452933328929408
  endloop
endfacet
facet normal 6.419735510452739e-16 1.0 -2.0181225293916844e-16
  outer loop
    vertex 191.83493415917002 96.35329969528986 3.452933328929408
    vertex 185.2753043551759 96.35329969528992 3.0000000000000004
    vertex 185.21567455118176 96.35329969528992 3.452933328929414
  endloop
endfacet
facet normal 6.419735510452739e-16 1.0 -2.0181225293916844e-16
  outer loop
    vertex 191.83493415917002 96.35329969528986 3.452933328929408
    vertex 185.21567455118176 96.35329969528992 3.452933328929414
    vertex 192.0097598985531 96.35329969528986 3.8749999999999973
  endloop
endfacet
facet normal 6.419735510452739e-16 1.0 -2.0181225293916844e-16
  outer loop
    vertex 192.0097598985531 96.35329969528986 3.8749999999999973
    vertex 185.21567455118176 96.35329969528992 3.452933328929414
    vertex 185.04084881179867 96.35329969528992 3.875000000000005
  endloop
endfacet
facet normal 6.419735510452739e-16 1.0 -2.0181225293916844e-16
  outer loop
    vertex 192.0097598985531 96.35329969528986 3.8749999999999973
    vertex 185.04084881179867 96.35329969528992 3.875000000000005
    vertex 192.2878674880994 96.35329969528986 4.237436867076456
  endloop
endfacet
facet normal 6.419735510452739e-16 1.0 -2.0181225293916844e-16
  outer loop
    vertex 192.2878674880994 96.35329969528986 4.237436867076456
    vertex 185.04084881179867 96.35329969528992 3.875000000000005
    vertex 184.76274122225237 96.35329969528992 4.237436867076465
  endloop
endfacet
facet normal 6.419735510452739e-16 1.0 -2.0181225293916844e-16
  outer loop
    vertex 192.2878674880994 96.35329969528986 4.237436867076456
    vertex 184.76274122225237 96.35329969528992 4.237436867076465
    vertex 192.65030435517588 96.35329969528986 4.515544456622767
  endloop
endfacet
facet normal 6.419735510452739e-16 1.0 -2.0181225293916844e-16
  outer loop
    vertex 192.65030435517588 96.35329969528986 4.515544456622767
    vertex 184.76274122225237 96.35329969528992 4.237436867076465
    vertex 184.40030435517588 96.35329969528992 4.515544456622775
  endloop
endfacet
facet normal 6.419735510452739e-16 1.0 -2.0181225293916844e-16
  outer loop
    vertex 192.65030435517588 96.35329969528986 4.515544456622767
    vertex 184.40030435517588 96.35329969528992 4.515544456622775
    vertex 193.0723710262465 96.35329969528986 4.690370196005871
  endloop
endfacet
facet normal 6.419735510452739e-16 1.0 -2.0181225293916844e-16
  outer loop
    vertex 193.0723710262465 96.35329969528986 4.690370196005871
    vertex 184.40030435517588 96.35329969528992 4.515544456622775
    vertex 183.9782376841053 96.35329969528992 4.690370196005878
  endloop
endfacet
facet normal 6.419735510452739e-16 1.0 -2.0181225293916844e-16
  outer loop
    vertex 193.0723710262465 96.35329969528986 4.690370196005871
    vertex 183.9782376841053 96.35329969528992 4.690370196005878
    vertex 193.5253043551759 96.35329969528986 4.750000000000002
  endloop
endfacet
facet normal 6.419735510452739e-16 1.0 -2.0181225293916844e-16
  outer loop
    vertex 193.5253043551759 96.35329969528986 4.750000000000002
    vertex 183.9782376841053 96.35329969528992 4.690370196005878
    vertex 183.52530435517588 96.35329969528992 4.750000000000008
  endloop
endfacet
facet normal 6.419735510452739e-16 1.0 -2.0181225293916844e-16
  outer loop
    vertex 178.52530435517588 96.35329969528988 0.0
    vertex 183.0723710262465 96.35329969528992 1.3096298039941225
    vertex 183.52530435517588 96.35329969528992 1.249999999999992
  endloop
endfacet
facet normal 6.419735510452739e-16 1.0 -2.0181225293916844e-16
  outer loop
    vertex 183.0723710262465 96.35329969528992 1.3096298039941225
    vertex 178.52530435517588 96.35329969528988 0.0
    vertex 182.65030435517588 96.35329969528992 1.4844555433772249
  endloop
endfacet
facet normal 6.419735510452739e-16 1.0 -2.0181225293916844e-16
  outer loop
    vertex 182.65030435517588 96.35329969528992 1.4844555433772249
    vertex 178.52530435517588 96.35329969528988 0.0
    vertex 182.2878674880994 96.35329969528992 1.762563132923536
  endloop
endfacet
facet normal 6.419735510452739e-16 1.0 -2.0181225293916844e-16
  outer loop
    vertex 182.2878674880994 96.35329969528992 1.762563132923536
    vertex 178.52530435517588 96.35329969528988 0.0
    vertex 182.0097598985531 96.35329969528992 2.1249999999999956
  endloop
endfacet
facet normal 6.419735510452739e-16 1.0 -2.0181225293916844e-16
  outer loop
    vertex 182.0097598985531 96.35329969528992 2.1249999999999956
    vertex 178.52530435517588 96.35329969528988 0.0
    vertex 181.83493415917 96.35329969528992 2.5470666710705854
  endloop
endfacet
facet normal 6.419735510452739e-16 1.0 -2.0181225293916844e-16
  outer loop
    vertex 181.83493415917 96.35329969528992 2.5470666710705854
    vertex 178.52530435517588 96.35329969528988 0.0
    vertex 178.52530435517588 96.35329969528988 21.0
  endloop
endfacet
facet normal 6.419735510452739e-16 1.0 -2.0181225293916844e-16
  outer loop
    vertex 181.83493415917 96.35329969528992 2.5470666710705854
    vertex 178.52530435517588 96.35329969528988 21.0
    vertex 181.77530435517588 96.35329969528992 3.0
  endloop
endfacet
facet normal 6.419735510452739e-16 1.0 -2.0181225293916844e-16
  outer loop
    vertex 181.77530435517588 96.35329969528992 3.0
    vertex 178.52530435517588 96.35329969528988 21.0
    vertex 181.83493415917 96.35329969528992 3.4529333289294137
  endloop
endfacet
facet normal 6.419735510452739e-16 1.0 -2.0181225293916844e-16
  outer loop
    vertex 181.83493415917 96.35329969528992 3.4529333289294137
    vertex 178.52530435517588 96.35329969528988 21.0
    vertex 182.0097598985531 96.35329969528992 3.875000000000004
  endloop
endfacet
facet normal 6.419735510452739e-16 1.0 -2.0181225293916844e-16
  outer loop
    vertex 182.0097598985531 96.35329969528992 3.875000000000004
    vertex 178.52530435517588 96.35329969528988 21.0
    vertex 182.2878674880994 96.35329969528992 4.237436867076465
  endloop
endfacet
facet normal 6.419735510452739e-16 1.0 -2.0181225293916844e-16
  outer loop
    vertex 182.2878674880994 96.35329969528992 4.237436867076465
    vertex 178.52530435517588 96.35329969528988 21.0
    vertex 182.65030435517588 96.35329969528992 4.5155444566227745
  endloop
endfacet
facet normal 6.419735510452739e-16 1.0 -2.0181225293916844e-16
  outer loop
    vertex 182.65030435517588 96.35329969528992 4.5155444566227745
    vertex 178.52530435517588 96.35329969528988 21.0
    vertex 183.0723710262465 96.35329969528992 4.690370196005878
  endloop
endfacet
facet normal 6.419735510452739e-16 1.0 -2.0181225293916844e-16
  outer loop
    vertex 183.0723710262465 96.35329969528992 4.690370196005878
    vertex 178.52530435517588 96.35329969528988 21.0
    vertex 183.52530435517588 96.35329969528992 4.750000000000008
  endloop
endfacet
facet normal 6.419735510452739e-16 1.0 -2.0181225293916844e-16
  outer loop
    vertex 183.52530435517588 96.35329969528992 4.750000000000008
    vertex 178.52530435517588 96.35329969528988 21.0
    vertex 182.0097598985531 96.35329969528992 16.124999999999996
  endloop
endfacet
facet normal 6.419735510452739e-16 1.0 -2.0181225293916844e-16
  outer loop
    vertex 183.52530435517588 96.35329969528992 4.750000000000008
    vertex 182.0097598985531 96.35329969528992 16.124999999999996
    vertex 182.2878674880994 96.35329969528992 15.762563132923535
  endloop
endfacet
facet normal 6.419735510452739e-16 1.0 -2.0181225293916844e-16
  outer loop
    vertex 183.52530435517588 96.35329969528992 4.750000000000008
    vertex 182.2878674880994 96.35329969528992 15.762563132923535
    vertex 182.65030435517588 96.35329969528992 15.484455543377225
  endloop
endfacet
facet normal 6.419735510452739e-16 1.0 -2.0181225293916844e-16
  outer loop
    vertex 183.52530435517588 96.35329969528992 4.750000000000008
    vertex 182.65030435517588 96.35329969528992 15.484455543377225
    vertex 183.0723710262465 96.35329969528992 15.309629803994124
  endloop
endfacet
facet normal 6.419735510452739e-16 1.0 -2.0181225293916844e-16
  outer loop
    vertex 183.52530435517588 96.35329969528992 4.750000000000008
    vertex 183.0723710262465 96.35329969528992 15.309629803994124
    vertex 183.52530435517588 96.35329969528992 15.249999999999991
  endloop
endfacet
facet normal 6.419735510452739e-16 1.0 -2.0181225293916844e-16
  outer loop
    vertex 182.0097598985531 96.35329969528992 16.124999999999996
    vertex 178.52530435517588 96.35329969528988 21.0
    vertex 181.83493415917 96.35329969528992 16.547066671070585
  endloop
endfacet
facet normal 6.419735510452739e-16 1.0 -2.0181225293916844e-16
  outer loop
    vertex 181.83493415917 96.35329969528992 16.547066671070585
    vertex 178.52530435517588 96.35329969528988 21.0
    vertex 181.77530435517588 96.35329969528992 17.0
  endloop
endfacet
facet normal 6.419735510452739e-16 1.0 -2.0181225293916844e-16
  outer loop
    vertex 181.77530435517588 96.35329969528992 17.0
    vertex 178.52530435517588 96.35329969528988 21.0
    vertex 181.83493415917 96.35329969528992 17.45293332892941
  endloop
endfacet
facet normal 6.419735510452739e-16 1.0 -2.0181225293916844e-16
  outer loop
    vertex 181.83493415917 96.35329969528992 17.45293332892941
    vertex 178.52530435517588 96.35329969528988 21.0
    vertex 182.0097598985531 96.35329969528992 17.875000000000004
  endloop
endfacet
facet normal 6.419735510452739e-16 1.0 -2.0181225293916844e-16
  outer loop
    vertex 182.0097598985531 96.35329969528992 17.875000000000004
    vertex 178.52530435517588 96.35329969528988 21.0
    vertex 182.2878674880994 96.35329969528992 18.237436867076465
  endloop
endfacet
facet normal 6.419735510452739e-16 1.0 -2.0181225293916844e-16
  outer loop
    vertex 182.2878674880994 96.35329969528992 18.237436867076465
    vertex 178.52530435517588 96.35329969528988 21.0
    vertex 182.65030435517588 96.35329969528992 18.515544456622777
  endloop
endfacet
facet normal 6.419735510452739e-16 1.0 -2.0181225293916844e-16
  outer loop
    vertex 182.65030435517588 96.35329969528992 18.515544456622777
    vertex 178.52530435517588 96.35329969528988 21.0
    vertex 183.0723710262465 96.35329969528992 18.690370196005876
  endloop
endfacet
facet normal 6.419735510452739e-16 1.0 -2.0181225293916844e-16
  outer loop
    vertex 183.0723710262465 96.35329969528992 18.690370196005876
    vertex 178.52530435517588 96.35329969528988 21.0
    vertex 183.52530435517588 96.35329969528992 18.750000000000007
  endloop
endfacet
facet normal 6.419735510452739e-16 1.0 -2.0181225293916844e-16
  outer loop
    vertex 196.52530435517588 96.35329969528985 -1.704150863856356e-30
    vertex 195.04084881179867 96.35329969528986 2.125000000000003
    vertex 196.52530435517588 96.35329969528985 4.1999999999999895
  endloop
endfacet
facet normal 6.419735510452739e-16 1.0 -2.0181225293916844e-16
  outer loop
    vertex 195.04084881179867 96.35329969528986 2.125000000000003
    vertex 196.52530435517588 96.35329969528985 -1.704150863856356e-30
    vertex 194.76274122225237 96.35329969528986 1.7625631329235434
  endloop
endfacet
facet normal 6.419735510452739e-16 1.0 -2.0181225293916844e-16
  outer loop
    vertex 194.76274122225237 96.35329969528986 1.7625631329235434
    vertex 196.52530435517588 96.35329969528985 -1.704150863856356e-30
    vertex 194.4003043551759 96.35329969528986 1.484455543377233
  endloop
endfacet
facet normal 6.419735510452739e-16 1.0 -2.0181225293916844e-16
  outer loop
    vertex 194.4003043551759 96.35329969528986 1.484455543377233
    vertex 196.52530435517588 96.35329969528985 -1.704150863856356e-30
    vertex 193.9782376841053 96.35329969528986 1.30962980399413
  endloop
endfacet
facet normal 6.419735510452739e-16 1.0 -2.0181225293916844e-16
  outer loop
    vertex 193.9782376841053 96.35329969528986 1.30962980399413
    vertex 196.52530435517588 96.35329969528985 -1.704150863856356e-30
    vertex 193.5253043551759 96.35329969528986 1.2499999999999984
  endloop
endfacet
facet normal 6.419735510452739e-16 1.0 -2.0181225293916844e-16
  outer loop
    vertex 193.5253043551759 96.35329969528986 1.2499999999999984
    vertex 196.52530435517588 96.35329969528985 -1.704150863856356e-30
    vertex 178.52530435517588 96.35329969528988 0.0
  endloop
endfacet
facet normal 6.419735510452739e-16 1.0 -2.0181225293916844e-16
  outer loop
    vertex 193.5253043551759 96.35329969528986 1.2499999999999984
    vertex 178.52530435517588 96.35329969528988 0.0
    vertex 183.52530435517588 96.35329969528992 1.249999999999992
  endloop
endfacet
facet normal 6.419735510452739e-16 1.0 -2.0181225293916844e-16
  outer loop
    vertex 196.52530435517588 96.35329969528985 4.1999999999999895
    vertex 195.04084881179867 96.35329969528986 2.125000000000003
    vertex 195.21567455118176 96.35329969528986 2.547066671070592
  endloop
endfacet
facet normal 6.419735510452739e-16 1.0 -2.0181225293916844e-16
  outer loop
    vertex 196.52530435517588 96.35329969528985 4.1999999999999895
    vertex 195.21567455118176 96.35329969528986 2.547066671070592
    vertex 195.2753043551759 96.35329969528986 3.0000000000000044
  endloop
endfacet
facet normal 6.419735510452739e-16 1.0 -2.0181225293916844e-16
  outer loop
    vertex 196.52530435517588 96.35329969528985 4.1999999999999895
    vertex 195.2753043551759 96.35329969528986 3.0000000000000044
    vertex 195.21567455118176 96.35329969528986 3.4529333289294155
  endloop
endfacet
facet normal 6.419735510452739e-16 1.0 -2.0181225293916844e-16
  outer loop
    vertex 196.52530435517588 96.35329969528985 4.1999999999999895
    vertex 195.21567455118176 96.35329969528986 3.4529333289294155
    vertex 195.04084881179867 96.35329969528986 3.875000000000004
  endloop
endfacet
facet normal 6.419735510452739e-16 1.0 -2.0181225293916844e-16
  outer loop
    vertex 196.52530435517588 96.35329969528985 4.1999999999999895
    vertex 195.04084881179867 96.35329969528986 3.875000000000004
    vertex 194.76274122225234 96.35329969528986 4.237436867076463
  endloop
endfacet
facet normal 6.419735510452739e-16 1.0 -2.0181225293916844e-16
  outer loop
    vertex 196.52530435517588 96.35329969528985 4.1999999999999895
    vertex 194.76274122225234 96.35329969528986 4.237436867076463
    vertex 188.52530435517588 96.35329969528988 21.0
  endloop
endfacet
facet normal 6.419735510452739e-16 1.0 -2.0181225293916844e-16
  outer loop
    vertex 188.52530435517588 96.35329969528988 21.0
    vertex 194.76274122225234 96.35329969528986 4.237436867076463
    vertex 194.4003043551759 96.35329969528986 4.515544456622772
  endloop
endfacet
facet normal 6.419735510452739e-16 1.0 -2.0181225293916844e-16
  outer loop
    vertex 188.52530435517588 96.35329969528988 21.0
    vertex 194.4003043551759 96.35329969528986 4.515544456622772
    vertex 193.9782376841053 96.35329969528986 4.690370196005872
  endloop
endfacet
facet normal 6.419735510452739e-16 1.0 -2.0181225293916844e-16
  outer loop
    vertex 188.52530435517588 96.35329969528988 21.0
    vertex 193.9782376841053 96.35329969528986 4.690370196005872
    vertex 193.5253043551759 96.35329969528986 4.750000000000002
  endloop
endfacet
facet normal 6.419735510452739e-16 1.0 -2.0181225293916844e-16
  outer loop
    vertex 188.52530435517588 96.35329969528988 21.0
    vertex 193.5253043551759 96.35329969528986 4.750000000000002
    vertex 183.52530435517588 96.35329969528992 4.750000000000008
  endloop
endfacet
facet normal 6.419735510452739e-16 1.0 -2.0181225293916844e-16
  outer loop
    vertex 188.52530435517588 96.35329969528988 21.0
    vertex 183.52530435517588 96.35329969528992 4.750000000000008
    vertex 185.04084881179867 96.35329969528992 16.124999999999996
  endloop
endfacet
facet normal 6.419735510452739e-16 1.0 -2.0181225293916844e-16
  outer loop
    vertex 185.04084881179867 96.35329969528992 16.124999999999996
    vertex 183.52530435517588 96.35329969528992 4.750000000000008
    vertex 184.76274122225237 96.35329969528992 15.762563132923535
  endloop
endfacet
facet normal 6.419735510452739e-16 1.0 -2.0181225293916844e-16
  outer loop
    vertex 184.76274122225237 96.35329969528992 15.762563132923535
    vertex 183.52530435517588 96.35329969528992 4.750000000000008
    vertex 184.40030435517588 96.35329969528992 15.484455543377225
  endloop
endfacet
facet normal 6.419735510452739e-16 1.0 -2.0181225293916844e-16
  outer loop
    vertex 184.40030435517588 96.35329969528992 15.484455543377225
    vertex 183.52530435517588 96.35329969528992 4.750000000000008
    vertex 183.9782376841053 96.35329969528992 15.309629803994124
  endloop
endfacet
facet normal 6.419735510452739e-16 1.0 -2.0181225293916844e-16
  outer loop
    vertex 183.9782376841053 96.35329969528992 15.309629803994124
    vertex 183.52530435517588 96.35329969528992 4.750000000000008
    vertex 183.52530435517588 96.35329969528992 15.249999999999991
  endloop
endfacet
facet normal 6.419735510452739e-16 1.0 -2.0181225293916844e-16
  outer loop
    vertex 188.52530435517588 96.35329969528988 21.0
    vertex 185.04084881179867 96.35329969528992 16.124999999999996
    vertex 185.21567455118176 96.35329969528992 16.54706667107059
  endloop
endfacet
facet normal 6.419735510452739e-16 1.0 -2.0181225293916844e-16
  outer loop
    vertex 188.52530435517588 96.35329969528988 21.0
    vertex 185.21567455118176 96.35329969528992 16.54706667107059
    vertex 185.2753043551759 96.35329969528992 17.0
  endloop
endfacet
facet normal 6.419735510452739e-16 1.0 -2.0181225293916844e-16
  outer loop
    vertex 188.52530435517588 96.35329969528988 21.0
    vertex 185.2753043551759 96.35329969528992 17.0
    vertex 185.21567455118176 96.35329969528992 17.452933328929415
  endloop
endfacet
facet normal 6.419735510452739e-16 1.0 -2.0181225293916844e-16
  outer loop
    vertex 188.52530435517588 96.35329969528988 21.0
    vertex 185.21567455118176 96.35329969528992 17.452933328929415
    vertex 185.04084881179867 96.35329969528992 17.875000000000004
  endloop
endfacet
facet normal 6.419735510452739e-16 1.0 -2.0181225293916844e-16
  outer loop
    vertex 188.52530435517588 96.35329969528988 21.0
    vertex 185.04084881179867 96.35329969528992 17.875000000000004
    vertex 184.76274122225237 96.35329969528992 18.237436867076465
  endloop
endfacet
facet normal 6.419735510452739e-16 1.0 -2.0181225293916844e-16
  outer loop
    vertex 188.52530435517588 96.35329969528988 21.0
    vertex 184.76274122225237 96.35329969528992 18.237436867076465
    vertex 184.40030435517588 96.35329969528992 18.515544456622777
  endloop
endfacet
facet normal 6.419735510452739e-16 1.0 -2.0181225293916844e-16
  outer loop
    vertex 188.52530435517588 96.35329969528988 21.0
    vertex 184.40030435517588 96.35329969528992 18.515544456622777
    vertex 183.9782376841053 96.35329969528992 18.690370196005876
  endloop
endfacet
facet normal 6.419735510452739e-16 1.0 -2.0181225293916844e-16
  outer loop
    vertex 188.52530435517588 96.35329969528988 21.0
    vertex 183.9782376841053 96.35329969528992 18.690370196005876
    vertex 183.52530435517588 96.35329969528992 18.750000000000007
  endloop
endfacet
facet normal 6.419735510452739e-16 1.0 -2.0181225293916844e-16
  outer loop
    vertex 188.52530435517588 96.35329969528988 21.0
    vertex 183.52530435517588 96.35329969528992 18.750000000000007
    vertex 178.52530435517588 96.35329969528988 21.0
  endloop
endfacet
facet normal 0.0 0.0 1.0
  outer loop
    vertex 186.02530435517588 88.35329969528988 21.0
    vertex 178.52530435517588 96.35329969528988 21.0
    vertex 178.52530435517588 88.35329969528988 21.0
  endloop
endfacet
facet normal 0.0 0.0 1.0
  outer loop
    vertex 178.52530435517588 96.35329969528988 21.0
    vertex 186.02530435517588 88.35329969528988 21.0
    vertex 186.02530435517588 93.35329969528988 21.0
  endloop
endfacet
facet normal 0.0 0.0 1.0
  outer loop
    vertex 178.52530435517588 96.35329969528988 21.0
    vertex 186.02530435517588 93.35329969528988 21.0
    vertex 188.52530435517588 96.35329969528988 21.0
  endloop
endfacet
facet normal 0.0 0.0 1.0
  outer loop
    vertex 188.52530435517588 96.35329969528988 21.0
    vertex 186.02530435517588 93.35329969528988 21.0
    vertex 188.52530435517588 93.35329969528988 21.0
  endloop
endfacet
facet normal -1.0 -0.0 -0.0
  outer loop
    vertex 178.52530435517588 96.35329969528988 21.0
    vertex 178.52530435517588 88.35329969528988 0.0
    vertex 178.52530435517588 88.35329969528988 21.0
  endloop
endfacet
facet normal -1.0 -0.0 -0.0
  outer loop
    vertex 178.52530435517588 88.35329969528988 0.0
    vertex 178.52530435517588 96.35329969528988 21.0
    vertex 178.52530435517588 96.35329969528988 0.0
  endloop
endfacet
facet normal -1.0 0.0 0.0
  outer loop
    vertex 191.02530435517588 93.35329969528988 15.75000000000001
    vertex 191.02530435517588 88.35329969528988 0.0
    vertex 191.02530435517588 88.35329969528988 15.75000000000001
  endloop
endfacet
facet normal -1.0 0.0 0.0
  outer loop
    vertex 191.02530435517588 88.35329969528988 0.0
    vertex 191.02530435517588 93.35329969528988 15.75000000000001
    vertex 191.02530435517588 93.35329969528988 0.0
  endloop
endfacet
facet normal -2.050884714580285e-15 -1.0 0.0
  outer loop
    vertex 196.52530435517588 88.35329969528986 0.0
    vertex 194.4003043551759 88.35329969528988 1.484455543377233
    vertex 191.02530435517588 88.35329969528988 0.0
  endloop
endfacet
facet normal -2.050884714580285e-15 -1.0 0.0
  outer loop
    vertex 194.4003043551759 88.35329969528988 1.484455543377233
    vertex 196.52530435517588 88.35329969528986 0.0
    vertex 194.76274122225237 88.35329969528988 1.7625631329235434
  endloop
endfacet
facet normal -2.050884714580285e-15 -1.0 0.0
  outer loop
    vertex 194.76274122225237 88.35329969528988 1.7625631329235434
    vertex 196.52530435517588 88.35329969528986 0.0
    vertex 195.04084881179867 88.35329969528988 2.125000000000003
  endloop
endfacet
facet normal -2.050884714580285e-15 -1.0 0.0
  outer loop
    vertex 195.04084881179867 88.35329969528988 2.125000000000003
    vertex 196.52530435517588 88.35329969528986 0.0
    vertex 196.52530435517588 88.35329969528986 4.1999999999999895
  endloop
endfacet
facet normal -2.050884714580285e-15 -1.0 0.0
  outer loop
    vertex 191.02530435517588 88.35329969528988 0.0
    vertex 194.4003043551759 88.35329969528988 1.484455543377233
    vertex 193.9782376841053 88.35329969528988 1.30962980399413
  endloop
endfacet
facet normal -2.050884714580285e-15 -1.0 0.0
  outer loop
    vertex 191.02530435517588 88.35329969528988 0.0
    vertex 193.9782376841053 88.35329969528988 1.30962980399413
    vertex 193.5253043551759 88.35329969528988 1.2499999999999984
  endloop
endfacet
facet normal -2.050884714580285e-15 -1.0 0.0
  outer loop
    vertex 195.04084881179867 88.35329969528988 2.125000000000003
    vertex 196.52530435517588 88.35329969528986 4.1999999999999895
    vertex 195.21567455118176 88.35329969528988 2.547066671070592
  endloop
endfacet
facet normal -2.050884714580285e-15 -1.0 0.0
  outer loop
    vertex 195.21567455118176 88.35329969528988 2.547066671070592
    vertex 196.52530435517588 88.35329969528986 4.1999999999999895
    vertex 195.2753043551759 88.35329969528988 3.0000000000000044
  endloop
endfacet
facet normal -2.050884714580285e-15 -1.0 0.0
  outer loop
    vertex 195.2753043551759 88.35329969528988 3.0000000000000044
    vertex 196.52530435517588 88.35329969528986 4.1999999999999895
    vertex 195.21567455118176 88.35329969528988 3.4529333289294155
  endloop
endfacet
facet normal -2.050884714580285e-15 -1.0 0.0
  outer loop
    vertex 195.21567455118176 88.35329969528988 3.4529333289294155
    vertex 196.52530435517588 88.35329969528986 4.1999999999999895
    vertex 195.04084881179867 88.35329969528988 3.875000000000004
  endloop
endfacet
facet normal -2.050884714580285e-15 -1.0 0.0
  outer loop
    vertex 195.04084881179867 88.35329969528988 3.875000000000004
    vertex 196.52530435517588 88.35329969528986 4.1999999999999895
    vertex 194.76274122225234 88.35329969528988 4.237436867076463
  endloop
endfacet
facet normal -2.050884714580285e-15 -1.0 0.0
  outer loop
    vertex 194.76274122225234 88.35329969528988 4.237436867076463
    vertex 196.52530435517588 88.35329969528986 4.1999999999999895
    vertex 191.02530435517588 88.35329969528988 15.75000000000001
  endloop
endfacet
facet normal -2.050884714580285e-15 -1.0 0.0
  outer loop
    vertex 194.76274122225234 88.35329969528988 4.237436867076463
    vertex 191.02530435517588 88.35329969528988 15.75000000000001
    vertex 194.4003043551759 88.35329969528988 4.515544456622772
  endloop
endfacet
facet normal -2.050884714580285e-15 -1.0 0.0
  outer loop
    vertex 194.4003043551759 88.35329969528988 4.515544456622772
    vertex 191.02530435517588 88.35329969528988 15.75000000000001
    vertex 193.9782376841053 88.35329969528988 4.690370196005872
  endloop
endfacet
facet normal -2.050884714580285e-15 -1.0 0.0
  outer loop
    vertex 193.9782376841053 88.35329969528988 4.690370196005872
    vertex 191.02530435517588 88.35329969528988 15.75000000000001
    vertex 193.5253043551759 88.35329969528988 4.750000000000002
  endloop
endfacet
facet normal -2.050884714580285e-15 -1.0 0.0
  outer loop
    vertex 191.02530435517588 88.35329969528988 0.0
    vertex 191.77530435517588 88.35329969528988 2.999999999999995
    vertex 191.02530435517588 88.35329969528988 15.75000000000001
  endloop
endfacet
facet normal -2.050884714580285e-15 -1.0 0.0
  outer loop
    vertex 191.77530435517588 88.35329969528988 2.999999999999995
    vertex 191.02530435517588 88.35329969528988 0.0
    vertex 191.83493415917002 88.35329969528988 2.547066671070584
  endloop
endfacet
facet normal -2.050884714580285e-15 -1.0 0.0
  outer loop
    vertex 191.83493415917002 88.35329969528988 2.547066671070584
    vertex 191.02530435517588 88.35329969528988 0.0
    vertex 192.0097598985531 88.35329969528988 2.1249999999999956
  endloop
endfacet
facet normal -2.050884714580285e-15 -1.0 0.0
  outer loop
    vertex 192.0097598985531 88.35329969528988 2.1249999999999956
    vertex 191.02530435517588 88.35329969528988 0.0
    vertex 192.28786748809944 88.35329969528988 1.7625631329235372
  endloop
endfacet
facet normal -2.050884714580285e-15 -1.0 0.0
  outer loop
    vertex 192.28786748809944 88.35329969528988 1.7625631329235372
    vertex 191.02530435517588 88.35329969528988 0.0
    vertex 192.65030435517588 88.35329969528988 1.4844555433772286
  endloop
endfacet
facet normal -2.050884714580285e-15 -1.0 0.0
  outer loop
    vertex 192.65030435517588 88.35329969528988 1.4844555433772286
    vertex 191.02530435517588 88.35329969528988 0.0
    vertex 193.0723710262465 88.35329969528988 1.3096298039941277
  endloop
endfacet
facet normal -2.050884714580285e-15 -1.0 0.0
  outer loop
    vertex 193.0723710262465 88.35329969528988 1.3096298039941277
    vertex 191.02530435517588 88.35329969528988 0.0
    vertex 193.5253043551759 88.35329969528988 1.2499999999999984
  endloop
endfacet
facet normal -2.050884714580285e-15 -1.0 0.0
  outer loop
    vertex 191.02530435517588 88.35329969528988 15.75000000000001
    vertex 191.77530435517588 88.35329969528988 2.999999999999995
    vertex 191.83493415917002 88.35329969528988 3.452933328929408
  endloop
endfacet
facet normal -2.050884714580285e-15 -1.0 0.0
  outer loop
    vertex 191.02530435517588 88.35329969528988 15.75000000000001
    vertex 191.83493415917002 88.35329969528988 3.452933328929408
    vertex 192.0097598985531 88.35329969528988 3.8749999999999973
  endloop
endfacet
facet normal -2.050884714580285e-15 -1.0 0.0
  outer loop
    vertex 191.02530435517588 88.35329969528988 15.75000000000001
    vertex 192.0097598985531 88.35329969528988 3.8749999999999973
    vertex 192.2878674880994 88.35329969528988 4.237436867076456
  endloop
endfacet
facet normal -2.050884714580285e-15 -1.0 0.0
  outer loop
    vertex 191.02530435517588 88.35329969528988 15.75000000000001
    vertex 192.2878674880994 88.35329969528988 4.237436867076456
    vertex 192.65030435517588 88.35329969528988 4.515544456622767
  endloop
endfacet
facet normal -2.050884714580285e-15 -1.0 0.0
  outer loop
    vertex 191.02530435517588 88.35329969528988 15.75000000000001
    vertex 192.65030435517588 88.35329969528988 4.515544456622767
    vertex 193.0723710262465 88.35329969528988 4.690370196005871
  endloop
endfacet
facet normal -2.050884714580285e-15 -1.0 0.0
  outer loop
    vertex 191.02530435517588 88.35329969528988 15.75000000000001
    vertex 193.0723710262465 88.35329969528988 4.690370196005871
    vertex 193.5253043551759 88.35329969528988 4.750000000000002
  endloop
endfacet
facet normal 0.0 -1.0 0.0
  outer loop
    vertex 191.02530435517588 93.35329969528988 15.75000000000001
    vertex 186.02530435517588 93.35329969528988 0.0
    vertex 191.02530435517588 93.35329969528988 0.0
  endloop
endfacet
facet normal 0.0 -1.0 0.0
  outer loop
    vertex 186.02530435517588 93.35329969528988 0.0
    vertex 191.02530435517588 93.35329969528988 15.75000000000001
    vertex 186.02530435517588 93.35329969528988 21.0
  endloop
endfacet
facet normal 0.0 -1.0 0.0
  outer loop
    vertex 186.02530435517588 93.35329969528988 21.0
    vertex 191.02530435517588 93.35329969528988 15.75000000000001
    vertex 188.52530435517588 93.35329969528988 21.0
  endloop
endfacet
facet normal 1.0 0.0 0.0
  outer loop
    vertex 186.02530435517588 93.35329969528988 0.0
    vertex 186.02530435517588 88.35329969528988 21.0
    vertex 186.02530435517588 88.35329969528988 0.0
  endloop
endfacet
facet normal 1.0 0.0 0.0
  outer loop
    vertex 186.02530435517588 88.35329969528988 21.0
    vertex 186.02530435517588 93.35329969528988 0.0
    vertex 186.02530435517588 93.35329969528988 21.0
  endloop
endfacet
facet normal -4.202008713512228e-32 -8.792274721628931e-32 -1.0
  outer loop
    vertex 178.52530435517588 96.35329969528988 0.0
    vertex 186.02530435517588 93.35329969528988 0.0
    vertex 178.52530435517588 88.35329969528988 0.0
  endloop
endfacet
facet normal -4.202008713512228e-32 -8.792274721628931e-32 -1.0
  outer loop
    vertex 186.02530435517588 93.35329969528988 0.0
    vertex 178.52530435517588 96.35329969528988 0.0
    vertex 196.52530435517588 96.35329969528985 -1.704150863856356e-30
  endloop
endfacet
facet normal -4.202008713512228e-32 -8.792274721628931e-32 -1.0
  outer loop
    vertex 186.02530435517588 93.35329969528988 0.0
    vertex 196.52530435517588 96.35329969528985 -1.704150863856356e-30
    vertex 191.02530435517588 93.35329969528988 0.0
  endloop
endfacet
facet normal -4.202008713512228e-32 -8.792274721628931e-32 -1.0
  outer loop
    vertex 191.02530435517588 93.35329969528988 0.0
    vertex 196.52530435517588 96.35329969528985 -1.704150863856356e-30
    vertex 191.02530435517588 88.35329969528988 0.0
  endloop
endfacet
facet normal -4.202008713512228e-32 -8.792274721628931e-32 -1.0
  outer loop
    vertex 191.02530435517588 88.35329969528988 0.0
    vertex 196.52530435517588 96.35329969528985 -1.704150863856356e-30
    vertex 196.52530435517588 88.35329969528986 0.0
  endloop
endfacet
facet normal -4.202008713512228e-32 -8.792274721628931e-32 -1.0
  outer loop
    vertex 186.02530435517588 88.35329969528988 0.0
    vertex 178.52530435517588 88.35329969528988 0.0
    vertex 186.02530435517588 93.35329969528988 0.0
  endloop
endfacet
facet normal 0.0 -1.0 0.0
  outer loop
    vertex 186.02530435517588 88.35329969528988 0.0
    vertex 183.9782376841053 88.35329969528988 1.3096298039941234
    vertex 178.52530435517588 88.35329969528988 0.0
  endloop
endfacet
facet normal 0.0 -1.0 0.0
  outer loop
    vertex 183.9782376841053 88.35329969528988 1.3096298039941234
    vertex 186.02530435517588 88.35329969528988 0.0
    vertex 184.40030435517588 88.35329969528988 1.4844555433772257
  endloop
endfacet
facet normal 0.0 -1.0 0.0
  outer loop
    vertex 184.40030435517588 88.35329969528988 1.4844555433772257
    vertex 186.02530435517588 88.35329969528988 0.0
    vertex 184.76274122225237 88.35329969528988 1.7625631329235367
  endloop
endfacet
facet normal 0.0 -1.0 0.0
  outer loop
    vertex 184.76274122225237 88.35329969528988 1.7625631329235367
    vertex 186.02530435517588 88.35329969528988 0.0
    vertex 185.04084881179867 88.35329969528988 2.124999999999997
  endloop
endfacet
facet normal 0.0 -1.0 0.0
  outer loop
    vertex 185.04084881179867 88.35329969528988 2.124999999999997
    vertex 186.02530435517588 88.35329969528988 0.0
    vertex 185.21567455118176 88.35329969528988 2.5470666710705876
  endloop
endfacet
facet normal 0.0 -1.0 0.0
  outer loop
    vertex 185.21567455118176 88.35329969528988 2.5470666710705876
    vertex 186.02530435517588 88.35329969528988 0.0
    vertex 185.2753043551759 88.35329969528988 3.0000000000000004
  endloop
endfacet
facet normal 0.0 -1.0 0.0
  outer loop
    vertex 185.2753043551759 88.35329969528988 3.0000000000000004
    vertex 186.02530435517588 88.35329969528988 0.0
    vertex 186.02530435517588 88.35329969528988 21.0
  endloop
endfacet
facet normal 0.0 -1.0 0.0
  outer loop
    vertex 178.52530435517588 88.35329969528988 0.0
    vertex 183.9782376841053 88.35329969528988 1.3096298039941234
    vertex 183.52530435517588 88.35329969528988 1.249999999999992
  endloop
endfacet
facet normal 0.0 -1.0 0.0
  outer loop
    vertex 185.2753043551759 88.35329969528988 3.0000000000000004
    vertex 186.02530435517588 88.35329969528988 21.0
    vertex 185.21567455118176 88.35329969528988 3.452933328929414
  endloop
endfacet
facet normal 0.0 -1.0 0.0
  outer loop
    vertex 185.21567455118176 88.35329969528988 3.452933328929414
    vertex 186.02530435517588 88.35329969528988 21.0
    vertex 185.04084881179867 88.35329969528988 3.875000000000005
  endloop
endfacet
facet normal 0.0 -1.0 0.0
  outer loop
    vertex 185.04084881179867 88.35329969528988 3.875000000000005
    vertex 186.02530435517588 88.35329969528988 21.0
    vertex 184.76274122225237 88.35329969528988 4.237436867076465
  endloop
endfacet
facet normal 0.0 -1.0 0.0
  outer loop
    vertex 184.76274122225237 88.35329969528988 4.237436867076465
    vertex 186.02530435517588 88.35329969528988 21.0
    vertex 184.40030435517588 88.35329969528988 4.515544456622775
  endloop
endfacet
facet normal 0.0 -1.0 0.0
  outer loop
    vertex 184.40030435517588 88.35329969528988 4.515544456622775
    vertex 186.02530435517588 88.35329969528988 21.0
    vertex 183.9782376841053 88.35329969528988 4.690370196005878
  endloop
endfacet
facet normal 0.0 -1.0 0.0
  outer loop
    vertex 183.9782376841053 88.35329969528988 4.690370196005878
    vertex 186.02530435517588 88.35329969528988 21.0
    vertex 183.52530435517588 88.35329969528988 4.750000000000008
  endloop
endfacet
facet normal 0.0 -1.0 0.0
  outer loop
    vertex 183.52530435517588 88.35329969528988 4.750000000000008
    vertex 186.02530435517588 88.35329969528988 21.0
    vertex 185.21567455118176 88.35329969528988 16.54706667107059
  endloop
endfacet
facet normal 0.0 -1.0 0.0
  outer loop
    vertex 183.52530435517588 88.35329969528988 4.750000000000008
    vertex 185.21567455118176 88.35329969528988 16.54706667107059
    vertex 185.04084881179867 88.35329969528988 16.124999999999996
  endloop
endfacet
facet normal 0.0 -1.0 0.0
  outer loop
    vertex 183.52530435517588 88.35329969528988 4.750000000000008
    vertex 185.04084881179867 88.35329969528988 16.124999999999996
    vertex 184.76274122225237 88.35329969528988 15.762563132923535
  endloop
endfacet
facet normal 0.0 -1.0 0.0
  outer loop
    vertex 183.52530435517588 88.35329969528988 4.750000000000008
    vertex 184.76274122225237 88.35329969528988 15.762563132923535
    vertex 184.40030435517588 88.35329969528988 15.484455543377225
  endloop
endfacet
facet normal 0.0 -1.0 0.0
  outer loop
    vertex 183.52530435517588 88.35329969528988 4.750000000000008
    vertex 184.40030435517588 88.35329969528988 15.484455543377225
    vertex 183.9782376841053 88.35329969528988 15.309629803994124
  endloop
endfacet
facet normal 0.0 -1.0 0.0
  outer loop
    vertex 183.52530435517588 88.35329969528988 4.750000000000008
    vertex 183.9782376841053 88.35329969528988 15.309629803994124
    vertex 183.52530435517588 88.35329969528988 15.249999999999991
  endloop
endfacet
facet normal 0.0 -1.0 0.0
  outer loop
    vertex 185.21567455118176 88.35329969528988 16.54706667107059
    vertex 186.02530435517588 88.35329969528988 21.0
    vertex 185.2753043551759 88.35329969528988 17.0
  endloop
endfacet
facet normal 0.0 -1.0 0.0
  outer loop
    vertex 185.2753043551759 88.35329969528988 17.0
    vertex 186.02530435517588 88.35329969528988 21.0
    vertex 185.21567455118176 88.35329969528988 17.452933328929415
  endloop
endfacet
facet normal 0.0 -1.0 0.0
  outer loop
    vertex 185.21567455118176 88.35329969528988 17.452933328929415
    vertex 186.02530435517588 88.35329969528988 21.0
    vertex 185.04084881179867 88.35329969528988 17.875000000000004
  endloop
endfacet
facet normal 0.0 -1.0 0.0
  outer loop
    vertex 185.04084881179867 88.35329969528988 17.875000000000004
    vertex 186.02530435517588 88.35329969528988 21.0
    vertex 184.76274122225237 88.35329969528988 18.237436867076465
  endloop
endfacet
facet normal 0.0 -1.0 0.0
  outer loop
    vertex 184.76274122225237 88.35329969528988 18.237436867076465
    vertex 186.02530435517588 88.35329969528988 21.0
    vertex 184.40030435517588 88.35329969528988 18.515544456622777
  endloop
endfacet
facet normal 0.0 -1.0 0.0
  outer loop
    vertex 184.40030435517588 88.35329969528988 18.515544456622777
    vertex 186.02530435517588 88.35329969528988 21.0
    vertex 183.9782376841053 88.35329969528988 18.690370196005876
  endloop
endfacet
facet normal 0.0 -1.0 0.0
  outer loop
    vertex 183.9782376841053 88.35329969528988 18.690370196005876
    vertex 186.02530435517588 88.35329969528988 21.0
    vertex 183.52530435517588 88.35329969528988 18.750000000000007
  endloop
endfacet
facet normal 0.0 -1.0 0.0
  outer loop
    vertex 178.52530435517588 88.35329969528988 0.0
    vertex 181.83493415917 88.35329969528988 2.5470666710705854
    vertex 178.52530435517588 88.35329969528988 21.0
  endloop
endfacet
facet normal 0.0 -1.0 0.0
  outer loop
    vertex 181.83493415917 88.35329969528988 2.5470666710705854
    vertex 178.52530435517588 88.35329969528988 0.0
    vertex 182.0097598985531 88.35329969528988 2.1249999999999956
  endloop
endfacet
facet normal 0.0 -1.0 0.0
  outer loop
    vertex 182.0097598985531 88.35329969528988 2.1249999999999956
    vertex 178.52530435517588 88.35329969528988 0.0
    vertex 182.2878674880994 88.35329969528988 1.762563132923536
  endloop
endfacet
facet normal 0.0 -1.0 0.0
  outer loop
    vertex 182.2878674880994 88.35329969528988 1.762563132923536
    vertex 178.52530435517588 88.35329969528988 0.0
    vertex 182.65030435517588 88.35329969528988 1.4844555433772249
  endloop
endfacet
facet normal 0.0 -1.0 0.0
  outer loop
    vertex 182.65030435517588 88.35329969528988 1.4844555433772249
    vertex 178.52530435517588 88.35329969528988 0.0
    vertex 183.0723710262465 88.35329969528988 1.3096298039941225
  endloop
endfacet
facet normal 0.0 -1.0 0.0
  outer loop
    vertex 183.0723710262465 88.35329969528988 1.3096298039941225
    vertex 178.52530435517588 88.35329969528988 0.0
    vertex 183.52530435517588 88.35329969528988 1.249999999999992
  endloop
endfacet
facet normal 0.0 -1.0 0.0
  outer loop
    vertex 178.52530435517588 88.35329969528988 21.0
    vertex 181.83493415917 88.35329969528988 2.5470666710705854
    vertex 181.77530435517588 88.35329969528988 3.0
  endloop
endfacet
facet normal 0.0 -1.0 0.0
  outer loop
    vertex 178.52530435517588 88.35329969528988 21.0
    vertex 181.77530435517588 88.35329969528988 3.0
    vertex 181.83493415917 88.35329969528988 3.4529333289294137
  endloop
endfacet
facet normal 0.0 -1.0 0.0
  outer loop
    vertex 178.52530435517588 88.35329969528988 21.0
    vertex 181.83493415917 88.35329969528988 3.4529333289294137
    vertex 182.0097598985531 88.35329969528988 3.875000000000004
  endloop
endfacet
facet normal 0.0 -1.0 0.0
  outer loop
    vertex 178.52530435517588 88.35329969528988 21.0
    vertex 182.0097598985531 88.35329969528988 3.875000000000004
    vertex 182.2878674880994 88.35329969528988 4.237436867076465
  endloop
endfacet
facet normal 0.0 -1.0 0.0
  outer loop
    vertex 178.52530435517588 88.35329969528988 21.0
    vertex 182.2878674880994 88.35329969528988 4.237436867076465
    vertex 182.65030435517588 88.35329969528988 4.5155444566227745
  endloop
endfacet
facet normal 0.0 -1.0 0.0
  outer loop
    vertex 178.52530435517588 88.35329969528988 21.0
    vertex 182.65030435517588 88.35329969528988 4.5155444566227745
    vertex 183.0723710262465 88.35329969528988 4.690370196005878
  endloop
endfacet
facet normal 0.0 -1.0 0.0
  outer loop
    vertex 178.52530435517588 88.35329969528988 21.0
    vertex 183.0723710262465 88.35329969528988 4.690370196005878
    vertex 183.52530435517588 88.35329969528988 4.750000000000008
  endloop
endfacet
facet normal 0.0 -1.0 0.0
  outer loop
    vertex 178.52530435517588 88.35329969528988 21.0
    vertex 183.52530435517588 88.35329969528988 4.750000000000008
    vertex 182.0097598985531 88.35329969528988 16.124999999999996
  endloop
endfacet
facet normal 0.0 -1.0 0.0
  outer loop
    vertex 182.0097598985531 88.35329969528988 16.124999999999996
    vertex 183.52530435517588 88.35329969528988 4.750000000000008
    vertex 182.2878674880994 88.35329969528988 15.762563132923535
  endloop
endfacet
facet normal 0.0 -1.0 0.0
  outer loop
    vertex 182.2878674880994 88.35329969528988 15.762563132923535
    vertex 183.52530435517588 88.35329969528988 4.750000000000008
    vertex 182.65030435517588 88.35329969528988 15.484455543377225
  endloop
endfacet
facet normal 0.0 -1.0 0.0
  outer loop
    vertex 182.65030435517588 88.35329969528988 15.484455543377225
    vertex 183.52530435517588 88.35329969528988 4.750000000000008
    vertex 183.0723710262465 88.35329969528988 15.309629803994124
  endloop
endfacet
facet normal 0.0 -1.0 0.0
  outer loop
    vertex 183.0723710262465 88.35329969528988 15.309629803994124
    vertex 183.52530435517588 88.35329969528988 4.750000000000008
    vertex 183.52530435517588 88.35329969528988 15.249999999999991
  endloop
endfacet
facet normal 0.0 -1.0 0.0
  outer loop
    vertex 178.52530435517588 88.35329969528988 21.0
    vertex 182.0097598985531 88.35329969528988 16.124999999999996
    vertex 181.83493415917 88.35329969528988 16.547066671070585
  endloop
endfacet
facet normal 0.0 -1.0 0.0
  outer loop
    vertex 178.52530435517588 88.35329969528988 21.0
    vertex 181.83493415917 88.35329969528988 16.547066671070585
    vertex 181.77530435517588 88.35329969528988 17.0
  endloop
endfacet
facet normal 0.0 -1.0 0.0
  outer loop
    vertex 178.52530435517588 88.35329969528988 21.0
    vertex 181.77530435517588 88.35329969528988 17.0
    vertex 181.83493415917 88.35329969528988 17.45293332892941
  endloop
endfacet
facet normal 0.0 -1.0 0.0
  outer loop
    vertex 178.52530435517588 88.35329969528988 21.0
    vertex 181.83493415917 88.35329969528988 17.45293332892941
    vertex 182.0097598985531 88.35329969528988 17.875000000000004
  endloop
endfacet
facet normal 0.0 -1.0 0.0
  outer loop
    vertex 178.52530435517588 88.35329969528988 21.0
    vertex 182.0097598985531 88.35329969528988 17.875000000000004
    vertex 182.2878674880994 88.35329969528988 18.237436867076465
  endloop
endfacet
facet normal 0.0 -1.0 0.0
  outer loop
    vertex 178.52530435517588 88.35329969528988 21.0
    vertex 182.2878674880994 88.35329969528988 18.237436867076465
    vertex 182.65030435517588 88.35329969528988 18.515544456622777
  endloop
endfacet
facet normal 0.0 -1.0 0.0
  outer loop
    vertex 178.52530435517588 88.35329969528988 21.0
    vertex 182.65030435517588 88.35329969528988 18.515544456622777
    vertex 183.0723710262465 88.35329969528988 18.690370196005876
  endloop
endfacet
facet normal 0.0 -1.0 0.0
  outer loop
    vertex 178.52530435517588 88.35329969528988 21.0
    vertex 183.0723710262465 88.35329969528988 18.690370196005876
    vertex 183.52530435517588 88.35329969528988 18.750000000000007
  endloop
endfacet
facet normal 0.0 -1.0 0.0
  outer loop
    vertex 178.52530435517588 88.35329969528988 21.0
    vertex 183.52530435517588 88.35329969528988 18.750000000000007
    vertex 186.02530435517588 88.35329969528988 21.0
  endloop
endfacet
facet normal -0.7933533402912494 0.0 0.608761429008702
  outer loop
    vertex 185.04084881179867 96.35329969528992 16.124999999999996
    vertex 184.76274122225237 88.35329969528988 15.762563132923535
    vertex 185.04084881179867 88.35329969528988 16.124999999999996
  endloop
endfacet
facet normal -0.7933533402912494 0.0 0.608761429008702
  outer loop
    vertex 184.76274122225237 88.35329969528988 15.762563132923535
    vertex 185.04084881179867 96.35329969528992 16.124999999999996
    vertex 184.76274122225237 96.35329969528992 15.762563132923535
  endloop
endfacet
facet normal -0.9238795325112781 0.0 0.38268343236511104
  outer loop
    vertex 185.21567455118176 96.35329969528992 16.54706667107059
    vertex 185.04084881179867 88.35329969528988 16.124999999999996
    vertex 185.21567455118176 88.35329969528988 16.54706667107059
  endloop
endfacet
facet normal -0.9238795325112781 0.0 0.38268343236511104
  outer loop
    vertex 185.04084881179867 88.35329969528988 16.124999999999996
    vertex 185.21567455118176 96.35329969528992 16.54706667107059
    vertex 185.04084881179867 96.35329969528992 16.124999999999996
  endloop
endfacet
facet normal -0.9914448613738124 0.0 0.13052619222003636
  outer loop
    vertex 185.2753043551759 96.35329969528992 17.0
    vertex 185.21567455118176 88.35329969528988 16.54706667107059
    vertex 185.2753043551759 88.35329969528988 17.0
  endloop
endfacet
facet normal -0.9914448613738124 0.0 0.13052619222003636
  outer loop
    vertex 185.21567455118176 88.35329969528988 16.54706667107059
    vertex 185.2753043551759 96.35329969528992 17.0
    vertex 185.21567455118176 96.35329969528992 16.54706667107059
  endloop
endfacet
facet normal -0.9914448613738125 -0.0 -0.1305261922200356
  outer loop
    vertex 185.21567455118176 96.35329969528992 17.452933328929415
    vertex 185.2753043551759 88.35329969528988 17.0
    vertex 185.21567455118176 88.35329969528988 17.452933328929415
  endloop
endfacet
facet normal -0.9914448613738125 -0.0 -0.1305261922200356
  outer loop
    vertex 185.2753043551759 88.35329969528988 17.0
    vertex 185.21567455118176 96.35329969528992 17.452933328929415
    vertex 185.2753043551759 96.35329969528992 17.0
  endloop
endfacet
facet normal -0.9238795325112772 -0.0 -0.38268343236511315
  outer loop
    vertex 185.04084881179867 96.35329969528992 17.875000000000004
    vertex 185.21567455118176 88.35329969528988 17.452933328929415
    vertex 185.04084881179867 88.35329969528988 17.875000000000004
  endloop
endfacet
facet normal -0.9238795325112772 -0.0 -0.38268343236511315
  outer loop
    vertex 185.21567455118176 88.35329969528988 17.452933328929415
    vertex 185.04084881179867 96.35329969528992 17.875000000000004
    vertex 185.21567455118176 96.35329969528992 17.452933328929415
  endloop
endfacet
facet normal -0.7933533402912494 -0.0 -0.608761429008702
  outer loop
    vertex 184.76274122225237 96.35329969528992 18.237436867076465
    vertex 185.04084881179867 88.35329969528988 17.875000000000004
    vertex 184.76274122225237 88.35329969528988 18.237436867076465
  endloop
endfacet
facet normal -0.7933533402912494 -0.0 -0.608761429008702
  outer loop
    vertex 185.04084881179867 88.35329969528988 17.875000000000004
    vertex 184.76274122225237 96.35329969528992 18.237436867076465
    vertex 185.04084881179867 96.35329969528992 17.875000000000004
  endloop
endfacet
facet normal -0.6087614290087126 -0.0 -0.7933533402912414
  outer loop
    vertex 184.76274122225237 96.35329969528992 18.237436867076465
    vertex 184.40030435517588 88.35329969528988 18.515544456622777
    vertex 184.40030435517588 96.35329969528992 18.515544456622777
  endloop
endfacet
facet normal -0.6087614290087126 -0.0 -0.7933533402912414
  outer loop
    vertex 184.40030435517588 88.35329969528988 18.515544456622777
    vertex 184.76274122225237 96.35329969528992 18.237436867076465
    vertex 184.76274122225237 88.35329969528988 18.237436867076465
  endloop
endfacet
facet normal -0.3826834323650846 -0.0 -0.9238795325112888
  outer loop
    vertex 184.40030435517588 96.35329969528992 18.515544456622777
    vertex 183.9782376841053 88.35329969528988 18.690370196005876
    vertex 183.9782376841053 96.35329969528992 18.690370196005876
  endloop
endfacet
facet normal -0.3826834323650846 -0.0 -0.9238795325112888
  outer loop
    vertex 183.9782376841053 88.35329969528988 18.690370196005876
    vertex 184.40030435517588 96.35329969528992 18.515544456622777
    vertex 184.40030435517588 88.35329969528988 18.515544456622777
  endloop
endfacet
facet normal -0.1305261922200546 -0.0 -0.9914448613738102
  outer loop
    vertex 183.9782376841053 96.35329969528992 18.690370196005876
    vertex 183.52530435517588 88.35329969528988 18.750000000000007
    vertex 183.52530435517588 96.35329969528992 18.750000000000007
  endloop
endfacet
facet normal -0.1305261922200546 -0.0 -0.9914448613738102
  outer loop
    vertex 183.52530435517588 88.35329969528988 18.750000000000007
    vertex 183.9782376841053 96.35329969528992 18.690370196005876
    vertex 183.9782376841053 88.35329969528988 18.690370196005876
  endloop
endfacet
facet normal 0.1305261922200546 0.0 -0.9914448613738102
  outer loop
    vertex 183.52530435517588 96.35329969528992 18.750000000000007
    vertex 183.0723710262465 88.35329969528988 18.690370196005876
    vertex 183.0723710262465 96.35329969528992 18.690370196005876
  endloop
endfacet
facet normal 0.1305261922200546 0.0 -0.9914448613738102
  outer loop
    vertex 183.0723710262465 88.35329969528988 18.690370196005876
    vertex 183.52530435517588 96.35329969528992 18.750000000000007
    vertex 183.52530435517588 88.35329969528988 18.750000000000007
  endloop
endfacet
facet normal 0.3826834323650846 0.0 -0.9238795325112888
  outer loop
    vertex 183.0723710262465 96.35329969528992 18.690370196005876
    vertex 182.65030435517588 88.35329969528988 18.515544456622777
    vertex 182.65030435517588 96.35329969528992 18.515544456622777
  endloop
endfacet
facet normal 0.3826834323650846 0.0 -0.9238795325112888
  outer loop
    vertex 182.65030435517588 88.35329969528988 18.515544456622777
    vertex 183.0723710262465 96.35329969528992 18.690370196005876
    vertex 183.0723710262465 88.35329969528988 18.690370196005876
  endloop
endfacet
facet normal 0.6087614290087126 0.0 -0.7933533402912414
  outer loop
    vertex 182.65030435517588 96.35329969528992 18.515544456622777
    vertex 182.2878674880994 88.35329969528988 18.237436867076465
    vertex 182.2878674880994 96.35329969528992 18.237436867076465
  endloop
endfacet
facet normal 0.6087614290087126 0.0 -0.7933533402912414
  outer loop
    vertex 182.2878674880994 88.35329969528988 18.237436867076465
    vertex 182.65030435517588 96.35329969528992 18.515544456622777
    vertex 182.65030435517588 88.35329969528988 18.515544456622777
  endloop
endfacet
facet normal 0.7933533402912494 0.0 -0.608761429008702
  outer loop
    vertex 182.0097598985531 96.35329969528992 17.875000000000004
    vertex 182.2878674880994 88.35329969528988 18.237436867076465
    vertex 182.0097598985531 88.35329969528988 17.875000000000004
  endloop
endfacet
facet normal 0.7933533402912494 0.0 -0.608761429008702
  outer loop
    vertex 182.2878674880994 88.35329969528988 18.237436867076465
    vertex 182.0097598985531 96.35329969528992 17.875000000000004
    vertex 182.2878674880994 96.35329969528992 18.237436867076465
  endloop
endfacet
facet normal 0.9238795325112781 0.0 -0.38268343236511104
  outer loop
    vertex 181.83493415917 96.35329969528992 17.45293332892941
    vertex 182.0097598985531 88.35329969528988 17.875000000000004
    vertex 181.83493415917 88.35329969528988 17.45293332892941
  endloop
endfacet
facet normal 0.9238795325112781 0.0 -0.38268343236511104
  outer loop
    vertex 182.0097598985531 88.35329969528988 17.875000000000004
    vertex 181.83493415917 96.35329969528992 17.45293332892941
    vertex 182.0097598985531 96.35329969528992 17.875000000000004
  endloop
endfacet
facet normal 0.9914448613738124 0.0 -0.13052619222003636
  outer loop
    vertex 181.77530435517588 96.35329969528992 17.0
    vertex 181.83493415917 88.35329969528988 17.45293332892941
    vertex 181.77530435517588 88.35329969528988 17.0
  endloop
endfacet
facet normal 0.9914448613738124 0.0 -0.13052619222003636
  outer loop
    vertex 181.83493415917 88.35329969528988 17.45293332892941
    vertex 181.77530435517588 96.35329969528992 17.0
    vertex 181.83493415917 96.35329969528992 17.45293332892941
  endloop
endfacet
facet normal 0.9914448613738125 0.0 0.1305261922200356
  outer loop
    vertex 181.83493415917 96.35329969528992 16.547066671070585
    vertex 181.77530435517588 88.35329969528988 17.0
    vertex 181.83493415917 88.35329969528988 16.547066671070585
  endloop
endfacet
facet normal 0.9914448613738125 0.0 0.1305261922200356
  outer loop
    vertex 181.77530435517588 88.35329969528988 17.0
    vertex 181.83493415917 96.35329969528992 16.547066671070585
    vertex 181.77530435517588 96.35329969528992 17.0
  endloop
endfacet
facet normal 0.9238795325112772 0.0 0.38268343236511315
  outer loop
    vertex 182.0097598985531 96.35329969528992 16.124999999999996
    vertex 181.83493415917 88.35329969528988 16.547066671070585
    vertex 182.0097598985531 88.35329969528988 16.124999999999996
  endloop
endfacet
facet normal 0.9238795325112772 0.0 0.38268343236511315
  outer loop
    vertex 181.83493415917 88.35329969528988 16.547066671070585
    vertex 182.0097598985531 96.35329969528992 16.124999999999996
    vertex 181.83493415917 96.35329969528992 16.547066671070585
  endloop
endfacet
facet normal 0.7933533402912494 0.0 0.608761429008702
  outer loop
    vertex 182.2878674880994 96.35329969528992 15.762563132923535
    vertex 182.0097598985531 88.35329969528988 16.124999999999996
    vertex 182.2878674880994 88.35329969528988 15.762563132923535
  endloop
endfacet
facet normal 0.7933533402912494 0.0 0.608761429008702
  outer loop
    vertex 182.0097598985531 88.35329969528988 16.124999999999996
    vertex 182.2878674880994 96.35329969528992 15.762563132923535
    vertex 182.0097598985531 96.35329969528992 16.124999999999996
  endloop
endfacet
facet normal 0.6087614290087126 0.0 0.7933533402912414
  outer loop
    vertex 182.65030435517588 88.35329969528988 15.484455543377225
    vertex 182.2878674880994 96.35329969528992 15.762563132923535
    vertex 182.2878674880994 88.35329969528988 15.762563132923535
  endloop
endfacet
facet normal 0.6087614290087126 0.0 0.7933533402912414
  outer loop
    vertex 182.2878674880994 96.35329969528992 15.762563132923535
    vertex 182.65030435517588 88.35329969528988 15.484455543377225
    vertex 182.65030435517588 96.35329969528992 15.484455543377225
  endloop
endfacet
facet normal 0.3826834323650846 0.0 0.9238795325112888
  outer loop
    vertex 183.0723710262465 88.35329969528988 15.309629803994124
    vertex 182.65030435517588 96.35329969528992 15.484455543377225
    vertex 182.65030435517588 88.35329969528988 15.484455543377225
  endloop
endfacet
facet normal 0.3826834323650846 0.0 0.9238795325112888
  outer loop
    vertex 182.65030435517588 96.35329969528992 15.484455543377225
    vertex 183.0723710262465 88.35329969528988 15.309629803994124
    vertex 183.0723710262465 96.35329969528992 15.309629803994124
  endloop
endfacet
facet normal 0.1305261922200546 0.0 0.9914448613738102
  outer loop
    vertex 183.52530435517588 88.35329969528988 15.249999999999991
    vertex 183.0723710262465 96.35329969528992 15.309629803994124
    vertex 183.0723710262465 88.35329969528988 15.309629803994124
  endloop
endfacet
facet normal 0.1305261922200546 0.0 0.9914448613738102
  outer loop
    vertex 183.0723710262465 96.35329969528992 15.309629803994124
    vertex 183.52530435517588 88.35329969528988 15.249999999999991
    vertex 183.52530435517588 96.35329969528992 15.249999999999991
  endloop
endfacet
facet normal -0.1305261922200546 0.0 0.9914448613738102
  outer loop
    vertex 183.9782376841053 88.35329969528988 15.309629803994124
    vertex 183.52530435517588 96.35329969528992 15.249999999999991
    vertex 183.52530435517588 88.35329969528988 15.249999999999991
  endloop
endfacet
facet normal -0.1305261922200546 0.0 0.9914448613738102
  outer loop
    vertex 183.52530435517588 96.35329969528992 15.249999999999991
    vertex 183.9782376841053 88.35329969528988 15.309629803994124
    vertex 183.9782376841053 96.35329969528992 15.309629803994124
  endloop
endfacet
facet normal -0.3826834323650846 0.0 0.9238795325112888
  outer loop
    vertex 184.40030435517588 88.35329969528988 15.484455543377225
    vertex 183.9782376841053 96.35329969528992 15.309629803994124
    vertex 183.9782376841053 88.35329969528988 15.309629803994124
  endloop
endfacet
facet normal -0.3826834323650846 0.0 0.9238795325112888
  outer loop
    vertex 183.9782376841053 96.35329969528992 15.309629803994124
    vertex 184.40030435517588 88.35329969528988 15.484455543377225
    vertex 184.40030435517588 96.35329969528992 15.484455543377225
  endloop
endfacet
facet normal -0.6087614290087126 0.0 0.7933533402912414
  outer loop
    vertex 184.76274122225237 88.35329969528988 15.762563132923535
    vertex 184.40030435517588 96.35329969528992 15.484455543377225
    vertex 184.40030435517588 88.35329969528988 15.484455543377225
  endloop
endfacet
facet normal -0.6087614290087126 0.0 0.7933533402912414
  outer loop
    vertex 184.40030435517588 96.35329969528992 15.484455543377225
    vertex 184.76274122225237 88.35329969528988 15.762563132923535
    vertex 184.76274122225237 96.35329969528992 15.762563132923535
  endloop
endfacet
facet normal -0.38268343236508856 -0.0 -0.9238795325112872
  outer loop
    vertex 184.40030435517588 96.35329969528992 4.515544456622775
    vertex 183.9782376841053 88.35329969528988 4.690370196005878
    vertex 183.9782376841053 96.35329969528992 4.690370196005878
  endloop
endfacet
facet normal -0.38268343236508856 -0.0 -0.9238795325112872
  outer loop
    vertex 183.9782376841053 88.35329969528988 4.690370196005878
    vertex 184.40030435517588 96.35329969528992 4.515544456622775
    vertex 184.40030435517588 88.35329969528988 4.515544456622775
  endloop
endfacet
facet normal -0.13052619222005155 -0.0 -0.9914448613738105
  outer loop
    vertex 183.9782376841053 96.35329969528992 4.690370196005878
    vertex 183.52530435517588 88.35329969528988 4.750000000000008
    vertex 183.52530435517588 96.35329969528992 4.750000000000008
  endloop
endfacet
facet normal -0.13052619222005155 -0.0 -0.9914448613738105
  outer loop
    vertex 183.52530435517588 88.35329969528988 4.750000000000008
    vertex 183.9782376841053 96.35329969528992 4.690370196005878
    vertex 183.9782376841053 88.35329969528988 4.690370196005878
  endloop
endfacet
facet normal 0.13052619222005155 0.0 -0.9914448613738105
  outer loop
    vertex 183.52530435517588 96.35329969528992 4.750000000000008
    vertex 183.0723710262465 88.35329969528988 4.690370196005878
    vertex 183.0723710262465 96.35329969528992 4.690370196005878
  endloop
endfacet
facet normal 0.13052619222005155 0.0 -0.9914448613738105
  outer loop
    vertex 183.0723710262465 88.35329969528988 4.690370196005878
    vertex 183.52530435517588 96.35329969528992 4.750000000000008
    vertex 183.52530435517588 88.35329969528988 4.750000000000008
  endloop
endfacet
facet normal 0.38268343236508984 0.0 -0.9238795325112866
  outer loop
    vertex 183.0723710262465 96.35329969528992 4.690370196005878
    vertex 182.65030435517588 88.35329969528988 4.5155444566227745
    vertex 182.65030435517588 96.35329969528992 4.5155444566227745
  endloop
endfacet
facet normal 0.38268343236508984 0.0 -0.9238795325112866
  outer loop
    vertex 182.65030435517588 88.35329969528988 4.5155444566227745
    vertex 183.0723710262465 96.35329969528992 4.690370196005878
    vertex 183.0723710262465 88.35329969528988 4.690370196005878
  endloop
endfacet
facet normal 0.6087614290087107 0.0 -0.7933533402912428
  outer loop
    vertex 182.65030435517588 96.35329969528992 4.5155444566227745
    vertex 182.2878674880994 88.35329969528988 4.237436867076465
    vertex 182.2878674880994 96.35329969528992 4.237436867076465
  endloop
endfacet
facet normal 0.6087614290087107 0.0 -0.7933533402912428
  outer loop
    vertex 182.2878674880994 88.35329969528988 4.237436867076465
    vertex 182.65030435517588 96.35329969528992 4.5155444566227745
    vertex 182.65030435517588 88.35329969528988 4.5155444566227745
  endloop
endfacet
facet normal 0.7933533402912494 0.0 -0.608761429008702
  outer loop
    vertex 182.0097598985531 96.35329969528992 3.875000000000004
    vertex 182.2878674880994 88.35329969528988 4.237436867076465
    vertex 182.0097598985531 88.35329969528988 3.875000000000004
  endloop
endfacet
facet normal 0.7933533402912494 0.0 -0.608761429008702
  outer loop
    vertex 182.2878674880994 88.35329969528988 4.237436867076465
    vertex 182.0097598985531 96.35329969528992 3.875000000000004
    vertex 182.2878674880994 96.35329969528992 4.237436867076465
  endloop
endfacet
facet normal 0.9238795325112775 0.0 -0.38268343236511204
  outer loop
    vertex 181.83493415917 96.35329969528992 3.4529333289294137
    vertex 182.0097598985531 88.35329969528988 3.875000000000004
    vertex 181.83493415917 88.35329969528988 3.4529333289294137
  endloop
endfacet
facet normal 0.9238795325112775 0.0 -0.38268343236511204
  outer loop
    vertex 182.0097598985531 88.35329969528988 3.875000000000004
    vertex 181.83493415917 96.35329969528992 3.4529333289294137
    vertex 182.0097598985531 96.35329969528992 3.875000000000004
  endloop
endfacet
facet normal 0.9914448613738125 0.0 -0.13052619222003597
  outer loop
    vertex 181.77530435517588 96.35329969528992 3.0
    vertex 181.83493415917 88.35329969528988 3.4529333289294137
    vertex 181.77530435517588 88.35329969528988 3.0
  endloop
endfacet
facet normal 0.9914448613738125 0.0 -0.13052619222003597
  outer loop
    vertex 181.83493415917 88.35329969528988 3.4529333289294137
    vertex 181.77530435517588 96.35329969528992 3.0
    vertex 181.83493415917 96.35329969528992 3.4529333289294137
  endloop
endfacet
facet normal 0.9914448613738125 0.0 0.1305261922200356
  outer loop
    vertex 181.83493415917 96.35329969528992 2.5470666710705854
    vertex 181.77530435517588 88.35329969528988 3.0
    vertex 181.83493415917 88.35329969528988 2.5470666710705854
  endloop
endfacet
facet normal 0.9914448613738125 0.0 0.1305261922200356
  outer loop
    vertex 181.77530435517588 88.35329969528988 3.0
    vertex 181.83493415917 96.35329969528992 2.5470666710705854
    vertex 181.77530435517588 96.35329969528992 3.0
  endloop
endfacet
facet normal 0.9238795325112773 0.0 0.3826834323651126
  outer loop
    vertex 182.0097598985531 96.35329969528992 2.1249999999999956
    vertex 181.83493415917 88.35329969528988 2.5470666710705854
    vertex 182.0097598985531 88.35329969528988 2.1249999999999956
  endloop
endfacet
facet normal 0.9238795325112773 0.0 0.3826834323651126
  outer loop
    vertex 181.83493415917 88.35329969528988 2.5470666710705854
    vertex 182.0097598985531 96.35329969528992 2.1249999999999956
    vertex 181.83493415917 96.35329969528992 2.5470666710705854
  endloop
endfacet
facet normal 0.7933533402912488 0.0 0.6087614290087028
  outer loop
    vertex 182.2878674880994 96.35329969528992 1.762563132923536
    vertex 182.0097598985531 88.35329969528988 2.1249999999999956
    vertex 182.2878674880994 88.35329969528988 1.762563132923536
  endloop
endfacet
facet normal 0.7933533402912488 0.0 0.6087614290087028
  outer loop
    vertex 182.0097598985531 88.35329969528988 2.1249999999999956
    vertex 182.2878674880994 96.35329969528992 1.762563132923536
    vertex 182.0097598985531 96.35329969528992 2.1249999999999956
  endloop
endfacet
facet normal 0.6087614290087121 0.0 0.7933533402912417
  outer loop
    vertex 182.65030435517588 88.35329969528988 1.4844555433772249
    vertex 182.2878674880994 96.35329969528992 1.762563132923536
    vertex 182.2878674880994 88.35329969528988 1.762563132923536
  endloop
endfacet
facet normal 0.6087614290087121 0.0 0.7933533402912417
  outer loop
    vertex 182.2878674880994 96.35329969528992 1.762563132923536
    vertex 182.65030435517588 88.35329969528988 1.4844555433772249
    vertex 182.65030435517588 96.35329969528992 1.4844555433772249
  endloop
endfacet
facet normal 0.38268343236508795 0.0 0.9238795325112876
  outer loop
    vertex 183.0723710262465 88.35329969528988 1.3096298039941225
    vertex 182.65030435517588 96.35329969528992 1.4844555433772249
    vertex 182.65030435517588 88.35329969528988 1.4844555433772249
  endloop
endfacet
facet normal 0.38268343236508795 0.0 0.9238795325112876
  outer loop
    vertex 182.65030435517588 96.35329969528992 1.4844555433772249
    vertex 183.0723710262465 88.35329969528988 1.3096298039941225
    vertex 183.0723710262465 96.35329969528992 1.3096298039941225
  endloop
endfacet
facet normal 0.13052619222005155 0.0 0.9914448613738105
  outer loop
    vertex 183.52530435517588 88.35329969528988 1.249999999999992
    vertex 183.0723710262465 96.35329969528992 1.3096298039941225
    vertex 183.0723710262465 88.35329969528988 1.3096298039941225
  endloop
endfacet
facet normal 0.13052619222005155 0.0 0.9914448613738105
  outer loop
    vertex 183.0723710262465 96.35329969528992 1.3096298039941225
    vertex 183.52530435517588 88.35329969528988 1.249999999999992
    vertex 183.52530435517588 96.35329969528992 1.249999999999992
  endloop
endfacet
facet normal -0.13052619222005304 0.0 0.9914448613738102
  outer loop
    vertex 183.9782376841053 88.35329969528988 1.3096298039941234
    vertex 183.52530435517588 96.35329969528992 1.249999999999992
    vertex 183.52530435517588 88.35329969528988 1.249999999999992
  endloop
endfacet
facet normal -0.13052619222005304 0.0 0.9914448613738102
  outer loop
    vertex 183.52530435517588 96.35329969528992 1.249999999999992
    vertex 183.9782376841053 88.35329969528988 1.3096298039941234
    vertex 183.9782376841053 96.35329969528992 1.3096298039941234
  endloop
endfacet
facet normal -0.38268343236508834 0.0 0.9238795325112875
  outer loop
    vertex 184.40030435517588 88.35329969528988 1.4844555433772257
    vertex 183.9782376841053 96.35329969528992 1.3096298039941234
    vertex 183.9782376841053 88.35329969528988 1.3096298039941234
  endloop
endfacet
facet normal -0.38268343236508834 0.0 0.9238795325112875
  outer loop
    vertex 183.9782376841053 96.35329969528992 1.3096298039941234
    vertex 184.40030435517588 88.35329969528988 1.4844555433772257
    vertex 184.40030435517588 96.35329969528992 1.4844555433772257
  endloop
endfacet
facet normal -0.6087614290087119 0.0 0.7933533402912419
  outer loop
    vertex 184.76274122225237 88.35329969528988 1.7625631329235367
    vertex 184.40030435517588 96.35329969528992 1.4844555433772257
    vertex 184.40030435517588 88.35329969528988 1.4844555433772257
  endloop
endfacet
facet normal -0.6087614290087119 0.0 0.7933533402912419
  outer loop
    vertex 184.40030435517588 96.35329969528992 1.4844555433772257
    vertex 184.76274122225237 88.35329969528988 1.7625631329235367
    vertex 184.76274122225237 96.35329969528992 1.7625631329235367
  endloop
endfacet
facet normal -0.7933533402912494 0.0 0.608761429008702
  outer loop
    vertex 185.04084881179867 96.35329969528992 2.124999999999997
    vertex 184.76274122225237 88.35329969528988 1.7625631329235367
    vertex 185.04084881179867 88.35329969528988 2.124999999999997
  endloop
endfacet
facet normal -0.7933533402912494 0.0 0.608761429008702
  outer loop
    vertex 184.76274122225237 88.35329969528988 1.7625631329235367
    vertex 185.04084881179867 96.35329969528992 2.124999999999997
    vertex 184.76274122225237 96.35329969528992 1.7625631329235367
  endloop
endfacet
facet normal -0.9238795325112775 0.0 0.38268343236511204
  outer loop
    vertex 185.21567455118176 96.35329969528992 2.5470666710705876
    vertex 185.04084881179867 88.35329969528988 2.124999999999997
    vertex 185.21567455118176 88.35329969528988 2.5470666710705876
  endloop
endfacet
facet normal -0.9238795325112775 0.0 0.38268343236511204
  outer loop
    vertex 185.04084881179867 88.35329969528988 2.124999999999997
    vertex 185.21567455118176 96.35329969528992 2.5470666710705876
    vertex 185.04084881179867 96.35329969528992 2.124999999999997
  endloop
endfacet
facet normal -0.9914448613738125 0.0 0.13052619222003609
  outer loop
    vertex 185.2753043551759 96.35329969528992 3.0000000000000004
    vertex 185.21567455118176 88.35329969528988 2.5470666710705876
    vertex 185.2753043551759 88.35329969528988 3.0000000000000004
  endloop
endfacet
facet normal -0.9914448613738125 0.0 0.13052619222003609
  outer loop
    vertex 185.21567455118176 88.35329969528988 2.5470666710705876
    vertex 185.2753043551759 96.35329969528992 3.0000000000000004
    vertex 185.21567455118176 96.35329969528992 2.5470666710705876
  endloop
endfacet
facet normal -0.9914448613738126 -0.0 -0.1305261922200359
  outer loop
    vertex 185.21567455118176 96.35329969528992 3.452933328929414
    vertex 185.2753043551759 88.35329969528988 3.0000000000000004
    vertex 185.21567455118176 88.35329969528988 3.452933328929414
  endloop
endfacet
facet normal -0.9914448613738126 -0.0 -0.1305261922200359
  outer loop
    vertex 185.2753043551759 88.35329969528988 3.0000000000000004
    vertex 185.21567455118176 96.35329969528992 3.452933328929414
    vertex 185.2753043551759 96.35329969528992 3.0000000000000004
  endloop
endfacet
facet normal -0.9238795325112775 -0.0 -0.38268343236511204
  outer loop
    vertex 185.04084881179867 96.35329969528992 3.875000000000005
    vertex 185.21567455118176 88.35329969528988 3.452933328929414
    vertex 185.04084881179867 88.35329969528988 3.875000000000005
  endloop
endfacet
facet normal -0.9238795325112775 -0.0 -0.38268343236511204
  outer loop
    vertex 185.21567455118176 88.35329969528988 3.452933328929414
    vertex 185.04084881179867 96.35329969528992 3.875000000000005
    vertex 185.21567455118176 96.35329969528992 3.452933328929414
  endloop
endfacet
facet normal -0.7933533402912488 -0.0 -0.6087614290087028
  outer loop
    vertex 184.76274122225237 96.35329969528992 4.237436867076465
    vertex 185.04084881179867 88.35329969528988 3.875000000000005
    vertex 184.76274122225237 88.35329969528988 4.237436867076465
  endloop
endfacet
facet normal -0.7933533402912488 -0.0 -0.6087614290087028
  outer loop
    vertex 185.04084881179867 88.35329969528988 3.875000000000005
    vertex 184.76274122225237 96.35329969528992 4.237436867076465
    vertex 185.04084881179867 96.35329969528992 3.875000000000005
  endloop
endfacet
facet normal -0.6087614290087116 -0.0 -0.793353340291242
  outer loop
    vertex 184.76274122225237 96.35329969528992 4.237436867076465
    vertex 184.40030435517588 88.35329969528988 4.515544456622775
    vertex 184.40030435517588 96.35329969528992 4.515544456622775
  endloop
endfacet
facet normal -0.6087614290087116 -0.0 -0.793353340291242
  outer loop
    vertex 184.40030435517588 88.35329969528988 4.515544456622775
    vertex 184.76274122225237 96.35329969528992 4.237436867076465
    vertex 184.76274122225237 88.35329969528988 4.237436867076465
  endloop
endfacet
facet normal 0.13052619222005304 0.0 -0.9914448613738102
  outer loop
    vertex 193.5253043551759 96.35329969528986 4.750000000000002
    vertex 193.0723710262465 88.35329969528988 4.690370196005871
    vertex 193.0723710262465 96.35329969528986 4.690370196005871
  endloop
endfacet
facet normal 0.13052619222005304 0.0 -0.9914448613738102
  outer loop
    vertex 193.0723710262465 88.35329969528988 4.690370196005871
    vertex 193.5253043551759 96.35329969528986 4.750000000000002
    vertex 193.5253043551759 88.35329969528988 4.750000000000002
  endloop
endfacet
facet normal 0.38268343236508984 0.0 -0.9238795325112866
  outer loop
    vertex 193.0723710262465 96.35329969528986 4.690370196005871
    vertex 192.65030435517588 88.35329969528988 4.515544456622767
    vertex 192.65030435517588 96.35329969528986 4.515544456622767
  endloop
endfacet
facet normal 0.38268343236508984 0.0 -0.9238795325112866
  outer loop
    vertex 192.65030435517588 88.35329969528988 4.515544456622767
    vertex 193.0723710262465 96.35329969528986 4.690370196005871
    vertex 193.0723710262465 88.35329969528988 4.690370196005871
  endloop
endfacet
facet normal 0.6087614290087126 0.0 -0.7933533402912414
  outer loop
    vertex 192.65030435517588 96.35329969528986 4.515544456622767
    vertex 192.2878674880994 88.35329969528988 4.237436867076456
    vertex 192.2878674880994 96.35329969528986 4.237436867076456
  endloop
endfacet
facet normal 0.6087614290087126 0.0 -0.7933533402912414
  outer loop
    vertex 192.2878674880994 88.35329969528988 4.237436867076456
    vertex 192.65030435517588 96.35329969528986 4.515544456622767
    vertex 192.65030435517588 88.35329969528988 4.515544456622767
  endloop
endfacet
facet normal 0.7933533402912484 0.0 -0.6087614290087036
  outer loop
    vertex 192.0097598985531 96.35329969528986 3.8749999999999973
    vertex 192.2878674880994 88.35329969528988 4.237436867076456
    vertex 192.0097598985531 88.35329969528988 3.8749999999999973
  endloop
endfacet
facet normal 0.7933533402912484 0.0 -0.6087614290087036
  outer loop
    vertex 192.2878674880994 88.35329969528988 4.237436867076456
    vertex 192.0097598985531 96.35329969528986 3.8749999999999973
    vertex 192.2878674880994 96.35329969528986 4.237436867076456
  endloop
endfacet
facet normal 0.9238795325112946 0.0 -0.382683432365071
  outer loop
    vertex 191.83493415917002 96.35329969528986 3.452933328929408
    vertex 192.0097598985531 88.35329969528988 3.8749999999999973
    vertex 191.83493415917002 88.35329969528988 3.452933328929408
  endloop
endfacet
facet normal 0.9238795325112946 0.0 -0.382683432365071
  outer loop
    vertex 192.0097598985531 88.35329969528988 3.8749999999999973
    vertex 191.83493415917002 96.35329969528986 3.452933328929408
    vertex 192.0097598985531 96.35329969528986 3.8749999999999973
  endloop
endfacet
facet normal 0.991444861373806 0.0 -0.1305261922200847
  outer loop
    vertex 191.77530435517588 96.35329969528986 2.999999999999995
    vertex 191.83493415917002 88.35329969528988 3.452933328929408
    vertex 191.77530435517588 88.35329969528988 2.999999999999995
  endloop
endfacet
facet normal 0.991444861373806 0.0 -0.1305261922200847
  outer loop
    vertex 191.83493415917002 88.35329969528988 3.452933328929408
    vertex 191.77530435517588 96.35329969528986 2.999999999999995
    vertex 191.83493415917002 96.35329969528986 3.452933328929408
  endloop
endfacet
facet normal 0.991444861373806 0.0 0.13052619222008513
  outer loop
    vertex 191.83493415917002 96.35329969528986 2.547066671070584
    vertex 191.77530435517588 88.35329969528988 2.999999999999995
    vertex 191.83493415917002 88.35329969528988 2.547066671070584
  endloop
endfacet
facet normal 0.991444861373806 0.0 0.13052619222008513
  outer loop
    vertex 191.77530435517588 88.35329969528988 2.999999999999995
    vertex 191.83493415917002 96.35329969528986 2.547066671070584
    vertex 191.77530435517588 96.35329969528986 2.999999999999995
  endloop
endfacet
facet normal 0.9238795325112943 0.0 0.3826834323650715
  outer loop
    vertex 192.0097598985531 96.35329969528986 2.1249999999999956
    vertex 191.83493415917002 88.35329969528988 2.547066671070584
    vertex 192.0097598985531 88.35329969528988 2.1249999999999956
  endloop
endfacet
facet normal 0.9238795325112943 0.0 0.3826834323650715
  outer loop
    vertex 191.83493415917002 88.35329969528988 2.547066671070584
    vertex 192.0097598985531 96.35329969528986 2.1249999999999956
    vertex 191.83493415917002 96.35329969528986 2.547066671070584
  endloop
endfacet
facet normal 0.7933533402912242 0.0 0.608761429008735
  outer loop
    vertex 192.28786748809944 96.35329969528986 1.7625631329235372
    vertex 192.0097598985531 88.35329969528988 2.1249999999999956
    vertex 192.28786748809944 88.35329969528988 1.7625631329235372
  endloop
endfacet
facet normal 0.7933533402912242 0.0 0.608761429008735
  outer loop
    vertex 192.0097598985531 88.35329969528988 2.1249999999999956
    vertex 192.28786748809944 96.35329969528986 1.7625631329235372
    vertex 192.0097598985531 96.35329969528986 2.1249999999999956
  endloop
endfacet
facet normal 0.6087614290087323 0.0 0.7933533402912262
  outer loop
    vertex 192.65030435517588 88.35329969528988 1.4844555433772286
    vertex 192.28786748809944 96.35329969528986 1.7625631329235372
    vertex 192.28786748809944 88.35329969528988 1.7625631329235372
  endloop
endfacet
facet normal 0.6087614290087323 0.0 0.7933533402912262
  outer loop
    vertex 192.28786748809944 96.35329969528986 1.7625631329235372
    vertex 192.65030435517588 88.35329969528988 1.4844555433772286
    vertex 192.65030435517588 96.35329969528986 1.4844555433772286
  endloop
endfacet
facet normal 0.3826834323650856 0.0 0.9238795325112885
  outer loop
    vertex 193.0723710262465 88.35329969528988 1.3096298039941277
    vertex 192.65030435517588 96.35329969528986 1.4844555433772286
    vertex 192.65030435517588 88.35329969528988 1.4844555433772286
  endloop
endfacet
facet normal 0.3826834323650856 0.0 0.9238795325112885
  outer loop
    vertex 192.65030435517588 96.35329969528986 1.4844555433772286
    vertex 193.0723710262465 88.35329969528988 1.3096298039941277
    vertex 193.0723710262465 96.35329969528986 1.3096298039941277
  endloop
endfacet
facet normal 0.13052619222004852 0.0 0.9914448613738108
  outer loop
    vertex 193.5253043551759 88.35329969528988 1.2499999999999984
    vertex 193.0723710262465 96.35329969528986 1.3096298039941277
    vertex 193.0723710262465 88.35329969528988 1.3096298039941277
  endloop
endfacet
facet normal 0.13052619222004852 0.0 0.9914448613738108
  outer loop
    vertex 193.0723710262465 96.35329969528986 1.3096298039941277
    vertex 193.5253043551759 88.35329969528988 1.2499999999999984
    vertex 193.5253043551759 96.35329969528986 1.2499999999999984
  endloop
endfacet
facet normal -0.13052619222005382 0.0 0.9914448613738102
  outer loop
    vertex 193.9782376841053 88.35329969528988 1.30962980399413
    vertex 193.5253043551759 96.35329969528986 1.2499999999999984
    vertex 193.5253043551759 88.35329969528988 1.2499999999999984
  endloop
endfacet
facet normal -0.13052619222005382 0.0 0.9914448613738102
  outer loop
    vertex 193.5253043551759 96.35329969528986 1.2499999999999984
    vertex 193.9782376841053 88.35329969528988 1.30962980399413
    vertex 193.9782376841053 96.35329969528986 1.30962980399413
  endloop
endfacet
facet normal -0.3826834323650892 0.0 0.923879532511287
  outer loop
    vertex 194.4003043551759 88.35329969528988 1.484455543377233
    vertex 193.9782376841053 96.35329969528986 1.30962980399413
    vertex 193.9782376841053 88.35329969528988 1.30962980399413
  endloop
endfacet
facet normal -0.3826834323650892 0.0 0.923879532511287
  outer loop
    vertex 193.9782376841053 96.35329969528986 1.30962980399413
    vertex 194.4003043551759 88.35329969528988 1.484455543377233
    vertex 194.4003043551759 96.35329969528986 1.484455543377233
  endloop
endfacet
facet normal -0.6087614290087111 0.0 0.7933533402912426
  outer loop
    vertex 194.76274122225237 88.35329969528988 1.7625631329235434
    vertex 194.4003043551759 96.35329969528986 1.484455543377233
    vertex 194.4003043551759 88.35329969528988 1.484455543377233
  endloop
endfacet
facet normal -0.6087614290087111 0.0 0.7933533402912426
  outer loop
    vertex 194.4003043551759 96.35329969528986 1.484455543377233
    vertex 194.76274122225237 88.35329969528988 1.7625631329235434
    vertex 194.76274122225237 96.35329969528986 1.7625631329235434
  endloop
endfacet
facet normal -0.7933533402912492 0.0 0.6087614290087024
  outer loop
    vertex 195.04084881179867 96.35329969528986 2.125000000000003
    vertex 194.76274122225237 88.35329969528988 1.7625631329235434
    vertex 195.04084881179867 88.35329969528988 2.125000000000003
  endloop
endfacet
facet normal -0.7933533402912492 0.0 0.6087614290087024
  outer loop
    vertex 194.76274122225237 88.35329969528988 1.7625631329235434
    vertex 195.04084881179867 96.35329969528986 2.125000000000003
    vertex 194.76274122225237 96.35329969528986 1.7625631329235434
  endloop
endfacet
facet normal -0.9238795325112945 0.0 0.38268343236507135
  outer loop
    vertex 195.21567455118176 96.35329969528986 2.547066671070592
    vertex 195.04084881179867 88.35329969528988 2.125000000000003
    vertex 195.21567455118176 88.35329969528988 2.547066671070592
  endloop
endfacet
facet normal -0.9238795325112945 0.0 0.38268343236507135
  outer loop
    vertex 195.04084881179867 88.35329969528988 2.125000000000003
    vertex 195.21567455118176 96.35329969528986 2.547066671070592
    vertex 195.04084881179867 96.35329969528986 2.125000000000003
  endloop
endfacet
facet normal -0.991444861373806 0.0 0.13052619222008482
  outer loop
    vertex 195.2753043551759 96.35329969528986 3.0000000000000044
    vertex 195.21567455118176 88.35329969528988 2.547066671070592
    vertex 195.2753043551759 88.35329969528988 3.0000000000000044
  endloop
endfacet
facet normal -0.991444861373806 0.0 0.13052619222008482
  outer loop
    vertex 195.21567455118176 88.35329969528988 2.547066671070592
    vertex 195.2753043551759 96.35329969528986 3.0000000000000044
    vertex 195.21567455118176 96.35329969528986 2.547066671070592
  endloop
endfacet
facet normal -0.991444861373806 -0.0 -0.13052619222008513
  outer loop
    vertex 195.21567455118176 96.35329969528986 3.4529333289294155
    vertex 195.2753043551759 88.35329969528988 3.0000000000000044
    vertex 195.21567455118176 88.35329969528988 3.4529333289294155
  endloop
endfacet
facet normal -0.991444861373806 -0.0 -0.13052619222008513
  outer loop
    vertex 195.2753043551759 88.35329969528988 3.0000000000000044
    vertex 195.21567455118176 96.35329969528986 3.4529333289294155
    vertex 195.2753043551759 96.35329969528986 3.0000000000000044
  endloop
endfacet
facet normal -0.9238795325112943 -0.0 -0.3826834323650715
  outer loop
    vertex 195.04084881179867 96.35329969528986 3.875000000000004
    vertex 195.21567455118176 88.35329969528988 3.4529333289294155
    vertex 195.04084881179867 88.35329969528988 3.875000000000004
  endloop
endfacet
facet normal -0.9238795325112943 -0.0 -0.3826834323650715
  outer loop
    vertex 195.21567455118176 88.35329969528988 3.4529333289294155
    vertex 195.04084881179867 96.35329969528986 3.875000000000004
    vertex 195.21567455118176 96.35329969528986 3.4529333289294155
  endloop
endfacet
facet normal -0.7933533402912245 -0.0 -0.6087614290087348
  outer loop
    vertex 194.76274122225234 96.35329969528986 4.237436867076463
    vertex 195.04084881179867 88.35329969528988 3.875000000000004
    vertex 194.76274122225234 88.35329969528988 4.237436867076463
  endloop
endfacet
facet normal -0.7933533402912245 -0.0 -0.6087614290087348
  outer loop
    vertex 195.04084881179867 88.35329969528988 3.875000000000004
    vertex 194.76274122225234 96.35329969528986 4.237436867076463
    vertex 195.04084881179867 96.35329969528986 3.875000000000004
  endloop
endfacet
facet normal -0.6087614290087325 -0.0 -0.7933533402912261
  outer loop
    vertex 194.76274122225234 96.35329969528986 4.237436867076463
    vertex 194.4003043551759 88.35329969528988 4.515544456622772
    vertex 194.4003043551759 96.35329969528986 4.515544456622772
  endloop
endfacet
facet normal -0.6087614290087325 -0.0 -0.7933533402912261
  outer loop
    vertex 194.4003043551759 88.35329969528988 4.515544456622772
    vertex 194.76274122225234 96.35329969528986 4.237436867076463
    vertex 194.76274122225234 88.35329969528988 4.237436867076463
  endloop
endfacet
facet normal -0.3826834323650846 -0.0 -0.9238795325112888
  outer loop
    vertex 194.4003043551759 96.35329969528986 4.515544456622772
    vertex 193.9782376841053 88.35329969528988 4.690370196005872
    vertex 193.9782376841053 96.35329969528986 4.690370196005872
  endloop
endfacet
facet normal -0.3826834323650846 -0.0 -0.9238795325112888
  outer loop
    vertex 193.9782376841053 88.35329969528988 4.690370196005872
    vertex 194.4003043551759 96.35329969528986 4.515544456622772
    vertex 194.4003043551759 88.35329969528988 4.515544456622772
  endloop
endfacet
facet normal -0.13052619222005002 -0.0 -0.9914448613738106
  outer loop
    vertex 193.9782376841053 96.35329969528986 4.690370196005872
    vertex 193.5253043551759 88.35329969528988 4.750000000000002
    vertex 193.5253043551759 96.35329969528986 4.750000000000002
  endloop
endfacet
facet normal -0.13052619222005002 -0.0 -0.9914448613738106
  outer loop
    vertex 193.5253043551759 88.35329969528988 4.750000000000002
    vertex 193.9782376841053 96.35329969528986 4.690370196005872
    vertex 193.9782376841053 88.35329969528988 4.690370196005872
  endloop
endfacet
facet normal 1.0 0.0 0.0
  outer loop
    vertex 196.52530435517588 96.35329969528985 -1.704150863856356e-30
    vertex 196.52530435517588 88.35329969528986 4.1999999999999895
    vertex 196.52530435517588 88.35329969528986 0.0
  endloop
endfacet
facet normal 1.0 0.0 0.0
  outer loop
    vertex 196.52530435517588 88.35329969528986 4.1999999999999895
    vertex 196.52530435517588 96.35329969528985 -1.704150863856356e-30
    vertex 196.52530435517588 96.35329969528985 4.1999999999999895
  endloop
endfacet
endsolid MatchBot RearSupport
